<?xml version="1.0" encoding="UTF-8"?>
<svg xmlns="http://www.w3.org/2000/svg" xmlns:xlink="http://www.w3.org/1999/xlink" width="50px" height="50px" viewBox="0 0 50 50" version="1.1">
<defs>
<filter id="alpha" filterUnits="objectBoundingBox" x="0%" y="0%" width="100%" height="100%">
  <feColorMatrix type="matrix" in="SourceGraphic" values="0 0 0 0 1 0 0 0 0 1 0 0 0 0 1 0 0 0 1 0"/>
</filter>
<mask id="mask0">
  <g filter="url(#alpha)">
<rect x="0" y="0" width="50" height="50" style="fill:rgb(0%,0%,0%);fill-opacity:0.121569;stroke:none;"/>
  </g>
</mask>
<clipPath id="clip1">
  <rect x="0" y="0" width="50" height="50"/>
</clipPath>
<g id="surface5" clip-path="url(#clip1)">
<path style=" stroke:none;fill-rule:nonzero;fill:rgb(58.431373%,65.098039%,89.803922%);fill-opacity:1;" d="M 42.71875 10.488281 C 41.140625 7.921875 38.511719 6.140625 35.511719 5.738281 C 34.351562 5.578125 33.160156 5.621094 32.011719 5.859375 C 28.578125 6.589844 25.601562 9.140625 24.371094 12.421875 C 23.640625 14.351562 23.441406 16.570312 22.058594 18.101562 C 20.261719 20.089844 17.21875 20.148438 14.53125 20.070312 C 11.839844 19.988281 8.800781 20.058594 7.011719 22.058594 C 5.890625 23.308594 5.53125 25.089844 5.621094 26.769531 C 5.859375 31.210938 8.988281 35.179688 12.980469 37.148438 C 16.96875 39.121094 21.660156 39.300781 26.019531 38.429688 C 32.128906 37.210938 37.941406 33.871094 41.429688 28.71875 C 44.75 23.808594 45.71875 17.191406 43.378906 11.769531 C 43.199219 11.328125 42.980469 10.898438 42.71875 10.488281 Z M 42.71875 10.488281 "/>
</g>
<mask id="mask1">
  <g filter="url(#alpha)">
<rect x="0" y="0" width="50" height="50" style="fill:rgb(0%,0%,0%);fill-opacity:0.129412;stroke:none;"/>
  </g>
</mask>
<clipPath id="clip2">
  <rect x="0" y="0" width="50" height="50"/>
</clipPath>
<g id="surface8" clip-path="url(#clip2)">
<path style=" stroke:none;fill-rule:nonzero;fill:rgb(58.431373%,65.098039%,89.803922%);fill-opacity:1;" d="M 30.460938 29.070312 C 30.699219 27.289062 29.441406 25.808594 27.871094 24.929688 C 26.300781 24.050781 24.480469 23.75 22.75 23.261719 C 21.121094 22.800781 19.488281 22.121094 18.28125 20.929688 C 17.070312 19.738281 16.339844 17.949219 16.78125 16.308594 C 16.890625 15.898438 17.078125 15.480469 17.441406 15.25 C 17.789062 15.011719 18.328125 15.019531 18.601562 15.351562 C 19.160156 16.058594 18.070312 17.339844 18.75 17.929688 C 18.910156 18.070312 19.121094 18.121094 19.289062 18.25 C 19.71875 18.601562 19.578125 19.269531 19.640625 19.820312 C 19.761719 20.910156 20.78125 21.671875 21.789062 22.109375 C 23.140625 22.699219 24.589844 22.980469 26.019531 23.328125 C 27.449219 23.679688 28.890625 24.121094 30.078125 24.988281 C 31.269531 25.859375 32.300781 27.199219 32.289062 28.679688 C 32.289062 29.089844 32.238281 29.601562 31.980469 29.910156 C 31.71875 30.230469 31.390625 30.300781 31.019531 30.121094 C 30.648438 29.941406 30.390625 29.671875 30.460938 29.070312 "/>
</g>
<mask id="mask2">
  <g filter="url(#alpha)">
<rect x="0" y="0" width="50" height="50" style="fill:rgb(0%,0%,0%);fill-opacity:0.129412;stroke:none;"/>
  </g>
</mask>
<clipPath id="clip3">
  <rect x="0" y="0" width="50" height="50"/>
</clipPath>
<g id="surface11" clip-path="url(#clip3)">
<path style=" stroke:none;fill-rule:nonzero;fill:rgb(58.431373%,65.098039%,89.803922%);fill-opacity:1;" d="M 22.871094 14.890625 C 22.808594 14.230469 23.308594 13.648438 23.871094 13.351562 C 24.429688 13.050781 25.070312 12.921875 25.648438 12.640625 C 27.078125 11.960938 28 10.359375 28.058594 8.71875 C 28.121094 7.078125 27.421875 5.441406 26.300781 4.230469 C 25.851562 3.738281 25.289062 3.230469 25.28125 2.558594 C 25.269531 1.859375 25.941406 1.308594 26.621094 1.320312 C 27.300781 1.328125 27.921875 1.78125 28.320312 2.351562 C 28.71875 2.921875 28.949219 3.589844 29.160156 4.261719 C 29 3.980469 29.320312 3.640625 29.628906 3.671875 C 29.941406 3.699219 30.179688 3.960938 30.371094 4.210938 C 31.191406 5.320312 31.578125 6.691406 31.480469 8.070312 C 31.371094 9.421875 30.761719 10.679688 29.761719 11.609375 C 28.671875 12.609375 27.21875 13.070312 25.820312 13.519531 L 22.898438 14.441406 "/>
</g>
<mask id="mask3">
  <g filter="url(#alpha)">
<rect x="0" y="0" width="50" height="50" style="fill:rgb(0%,0%,0%);fill-opacity:0.129412;stroke:none;"/>
  </g>
</mask>
<clipPath id="clip4">
  <rect x="0" y="0" width="50" height="50"/>
</clipPath>
<g id="surface14" clip-path="url(#clip4)">
<path style=" stroke:none;fill-rule:nonzero;fill:rgb(58.431373%,65.098039%,89.803922%);fill-opacity:1;" d="M 22.058594 0.988281 C 21.738281 1.121094 21.589844 1.480469 21.71875 1.800781 C 21.851562 2.121094 22.210938 2.269531 22.53125 2.140625 C 22.851562 2.011719 23 1.648438 22.871094 1.328125 C 22.75 1.050781 22.449219 0.890625 22.160156 0.960938 "/>
</g>
<mask id="mask4">
  <g filter="url(#alpha)">
<rect x="0" y="0" width="50" height="50" style="fill:rgb(0%,0%,0%);fill-opacity:0.129412;stroke:none;"/>
  </g>
</mask>
<clipPath id="clip5">
  <rect x="0" y="0" width="50" height="50"/>
</clipPath>
<g id="surface17" clip-path="url(#clip5)">
<path style=" stroke:none;fill-rule:nonzero;fill:rgb(58.431373%,65.098039%,89.803922%);fill-opacity:1;" d="M 25.671875 43.660156 C 25.308594 42.921875 25.621094 41.988281 26.199219 41.390625 C 26.769531 40.789062 27.550781 40.449219 28.300781 40.121094 C 29.96875 39.378906 31.730469 38.511719 32.578125 36.898438 C 32.871094 36.359375 33.03125 35.761719 33.191406 35.160156 C 33.5 34.011719 33.789062 32.710938 33.171875 31.699219 C 32.988281 31.410156 32.71875 31.148438 32.378906 31.089844 C 32 31.019531 31.601562 31.230469 31.371094 31.539062 C 31.148438 31.859375 31.011719 32.238281 30.980469 32.628906 C 30.890625 33.359375 30.960938 34.109375 30.890625 34.839844 C 30.808594 35.570312 30.550781 36.359375 29.941406 36.769531 C 29.199219 37.28125 28.148438 37.171875 27.429688 37.710938 C 26.851562 38.148438 26.628906 38.910156 26.179688 39.480469 C 25.800781 39.960938 25.269531 40.28125 24.78125 40.648438 C 24.289062 41.019531 23.820312 41.46875 23.648438 42.050781 C 23.398438 42.929688 23.910156 43.851562 24.800781 44.101562 C 25.191406 44.210938 25.601562 44.179688 25.96875 44 "/>
</g>
<mask id="mask5">
  <g filter="url(#alpha)">
<rect x="0" y="0" width="50" height="50" style="fill:rgb(0%,0%,0%);fill-opacity:0.129412;stroke:none;"/>
  </g>
</mask>
<clipPath id="clip6">
  <rect x="0" y="0" width="50" height="50"/>
</clipPath>
<g id="surface20" clip-path="url(#clip6)">
<path style=" stroke:none;fill-rule:nonzero;fill:rgb(58.431373%,65.098039%,89.803922%);fill-opacity:1;" d="M 14.578125 6.121094 C 13.558594 5.359375 13.339844 3.910156 14.101562 2.890625 C 14.25 2.691406 14.429688 2.511719 14.640625 2.371094 C 14.980469 2.140625 15.378906 1.988281 15.691406 1.710938 C 15.960938 1.460938 16.128906 1.109375 16.441406 0.898438 C 16.929688 0.550781 17.609375 0.671875 17.949219 1.160156 C 18.160156 1.449219 18.210938 1.820312 18.078125 2.160156 C 17.941406 2.550781 17.589844 2.828125 17.449219 3.21875 C 17.289062 3.640625 17.390625 4.109375 17.339844 4.539062 C 17.210938 5.539062 16.289062 6.238281 15.289062 6.109375 C 15.160156 6.089844 15.019531 6.058594 14.898438 6.011719 "/>
</g>
<mask id="mask6">
  <g filter="url(#alpha)">
<rect x="0" y="0" width="50" height="50" style="fill:rgb(0%,0%,0%);fill-opacity:0.760784;stroke:none;"/>
  </g>
</mask>
<clipPath id="clip7">
  <rect x="0" y="0" width="50" height="50"/>
</clipPath>
<g id="surface23" clip-path="url(#clip7)">
<path style=" stroke:none;fill-rule:nonzero;fill:rgb(22.352941%,30.980392%,88.235294%);fill-opacity:1;" d="M 36.109375 19.550781 C 36.039062 19.550781 35.148438 20.589844 34.761719 21.289062 C 33.441406 23.648438 33.378906 25.949219 33.019531 28.628906 C 32.96875 29.011719 32.78125 29.839844 32.78125 29.820312 C 32.96875 29.96875 33.628906 30.28125 33.628906 30.28125 C 33.628906 30.28125 34.25 29.53125 34.488281 29.160156 C 35.46875 27.660156 36.539062 26.480469 37.378906 24.898438 C 38.21875 23.320312 39.03125 21.910156 38.25 20.289062 C 38.261719 20.28125 36.910156 19.511719 36.109375 19.550781 Z M 36.109375 19.550781 "/>
</g>
<mask id="mask7">
  <g filter="url(#alpha)">
<rect x="0" y="0" width="50" height="50" style="fill:rgb(0%,0%,0%);fill-opacity:0.4;stroke:none;"/>
  </g>
</mask>
<clipPath id="clip8">
  <rect x="0" y="0" width="50" height="50"/>
</clipPath>
<g id="surface26" clip-path="url(#clip8)">
<path style=" stroke:none;fill-rule:nonzero;fill:rgb(0%,0%,0%);fill-opacity:1;" d="M 20.371094 22.671875 L 23.160156 22.261719 L 21.828125 20.378906 L 21.121094 20.421875 C 20.640625 20.449219 20.21875 20.738281 20.019531 21.191406 C 19.921875 21.429688 19.890625 21.691406 19.941406 21.941406 Z M 20.371094 22.671875 "/>
</g>
<mask id="mask8">
  <g filter="url(#alpha)">
<rect x="0" y="0" width="50" height="50" style="fill:rgb(0%,0%,0%);fill-opacity:0.6;stroke:none;"/>
  </g>
</mask>
<clipPath id="clip9">
  <rect x="0" y="0" width="50" height="50"/>
</clipPath>
<g id="surface29" clip-path="url(#clip9)">
<path style=" stroke:none;fill-rule:nonzero;fill:rgb(100%,100%,100%);fill-opacity:1;" d="M 27.691406 36.691406 C 27.738281 36.628906 27.820312 36.621094 27.878906 36.660156 C 27.941406 36.710938 27.949219 36.789062 27.910156 36.851562 C 27.859375 36.910156 27.769531 36.921875 27.710938 36.878906 C 27.648438 36.828125 27.648438 36.738281 27.699219 36.679688 "/>
</g>
<mask id="mask9">
  <g filter="url(#alpha)">
<rect x="0" y="0" width="50" height="50" style="fill:rgb(0%,0%,0%);fill-opacity:0.6;stroke:none;"/>
  </g>
</mask>
<clipPath id="clip10">
  <rect x="0" y="0" width="50" height="50"/>
</clipPath>
<g id="surface32" clip-path="url(#clip10)">
<path style=" stroke:none;fill-rule:nonzero;fill:rgb(100%,100%,100%);fill-opacity:1;" d="M 29 36.601562 L 28.730469 36.5 L 27.5 39.660156 C 27.5 39.660156 27.5 39.828125 27.609375 39.859375 Z M 29 36.601562 "/>
</g>
<mask id="mask10">
  <g filter="url(#alpha)">
<rect x="0" y="0" width="50" height="50" style="fill:rgb(0%,0%,0%);fill-opacity:0.6;stroke:none;"/>
  </g>
</mask>
<clipPath id="clip11">
  <rect x="0" y="0" width="50" height="50"/>
</clipPath>
<g id="surface35" clip-path="url(#clip11)">
<path style=" stroke:none;fill-rule:nonzero;fill:rgb(100%,100%,100%);fill-opacity:1;" d="M 26.121094 44.441406 L 27.058594 41.671875 L 27.101562 41.769531 C 27.140625 41.851562 27.140625 41.949219 27.121094 42.039062 C 27.050781 42.28125 26.851562 42.929688 26.300781 44.289062 C 26.269531 44.359375 26.199219 44.421875 26.121094 44.441406 Z M 26.121094 44.441406 "/>
</g>
<mask id="mask11">
  <g filter="url(#alpha)">
<rect x="0" y="0" width="50" height="50" style="fill:rgb(0%,0%,0%);fill-opacity:0.6;stroke:none;"/>
  </g>
</mask>
<clipPath id="clip12">
  <rect x="0" y="0" width="50" height="50"/>
</clipPath>
<g id="surface38" clip-path="url(#clip12)">
<path style=" stroke:none;fill-rule:nonzero;fill:rgb(100%,100%,100%);fill-opacity:1;" d="M 26.261719 41.140625 C 26.21875 41.210938 26.238281 41.300781 26.300781 41.339844 C 26.371094 41.378906 26.460938 41.359375 26.5 41.300781 C 26.539062 41.230469 26.519531 41.128906 26.449219 41.089844 C 26.371094 41.050781 26.28125 41.078125 26.25 41.160156 "/>
</g>
<mask id="mask12">
  <g filter="url(#alpha)">
<rect x="0" y="0" width="50" height="50" style="fill:rgb(0%,0%,0%);fill-opacity:0.2;stroke:none;"/>
  </g>
</mask>
<clipPath id="clip13">
  <rect x="0" y="0" width="50" height="50"/>
</clipPath>
<g id="surface41" clip-path="url(#clip13)">
<path style=" stroke:none;fill-rule:nonzero;fill:rgb(100%,100%,100%);fill-opacity:1;" d="M 20.378906 5.609375 C 20.53125 5.449219 20.699219 5.320312 20.898438 5.21875 C 21.03125 5.148438 21.160156 5.101562 21.300781 5.070312 C 21.398438 5.050781 21.460938 5.058594 21.46875 5.078125 C 21.480469 5.128906 21.289062 5.210938 21.03125 5.410156 C 20.328125 5.921875 19.988281 6.800781 20.160156 7.648438 C 20.21875 7.980469 20.308594 8.171875 20.269531 8.199219 C 20.25 8.210938 20.199219 8.179688 20.140625 8.101562 C 20.050781 7.980469 19.988281 7.851562 19.941406 7.71875 C 19.871094 7.511719 19.828125 7.300781 19.828125 7.078125 C 19.820312 6.808594 19.871094 6.539062 19.96875 6.289062 "/>
</g>
<mask id="mask13">
  <g filter="url(#alpha)">
<rect x="0" y="0" width="50" height="50" style="fill:rgb(0%,0%,0%);fill-opacity:0.2;stroke:none;"/>
  </g>
</mask>
<clipPath id="clip14">
  <rect x="0" y="0" width="50" height="50"/>
</clipPath>
<g id="surface44" clip-path="url(#clip14)">
<path style=" stroke:none;fill-rule:nonzero;fill:rgb(100%,100%,100%);fill-opacity:1;" d="M 22.121094 5.148438 C 21.949219 5.160156 21.800781 5.121094 21.769531 5.03125 C 21.761719 4.988281 21.789062 4.941406 21.851562 4.890625 C 22 4.800781 22.191406 4.78125 22.359375 4.859375 C 22.421875 4.890625 22.460938 4.941406 22.449219 4.988281 "/>
</g>
<mask id="mask14">
  <g filter="url(#alpha)">
<rect x="0" y="0" width="50" height="50" style="fill:rgb(0%,0%,0%);fill-opacity:0.780392;stroke:none;"/>
  </g>
</mask>
<clipPath id="clip15">
  <rect x="0" y="0" width="50" height="50"/>
</clipPath>
<g id="surface47" clip-path="url(#clip15)">
<path style=" stroke:none;fill-rule:nonzero;fill:rgb(22.352941%,30.980392%,88.235294%);fill-opacity:1;" d="M 15.851562 34.289062 L 15.921875 34.398438 C 16 34.519531 16.101562 34.628906 16.230469 34.691406 L 16.339844 34.75 L 16.230469 34.820312 C 16.109375 34.898438 16.011719 35 15.941406 35.128906 L 15.878906 35.25 L 15.808594 35.140625 C 15.730469 35.019531 15.628906 34.910156 15.5 34.851562 L 15.378906 34.789062 L 15.488281 34.71875 C 15.609375 34.648438 15.71875 34.539062 15.78125 34.410156 Z M 15.851562 34.289062 "/>
<path style=" stroke:none;fill-rule:nonzero;fill:rgb(22.352941%,30.980392%,88.235294%);fill-opacity:1;" d="M 9.710938 11.449219 L 9.78125 11.558594 C 9.859375 11.679688 9.960938 11.78125 10.089844 11.851562 L 10.199219 11.910156 L 10.089844 11.980469 C 9.960938 12.050781 9.859375 12.160156 9.800781 12.289062 L 9.738281 12.398438 L 9.671875 12.289062 C 9.589844 12.160156 9.488281 12.058594 9.351562 12 L 9.230469 11.941406 L 9.339844 11.871094 C 9.460938 11.789062 9.570312 11.679688 9.628906 11.550781 Z M 9.710938 11.449219 "/>
<path style=" stroke:none;fill-rule:nonzero;fill:rgb(22.352941%,30.980392%,88.235294%);fill-opacity:1;" d="M 38.121094 15.390625 L 38.191406 15.5 C 38.269531 15.628906 38.371094 15.730469 38.511719 15.789062 L 38.628906 15.851562 L 38.519531 15.921875 C 38.398438 16 38.300781 16.109375 38.230469 16.238281 L 38.171875 16.351562 L 38.101562 16.238281 C 38.03125 16.121094 37.921875 16.019531 37.789062 15.949219 L 37.671875 15.890625 L 37.78125 15.820312 C 37.910156 15.75 38.011719 15.640625 38.070312 15.511719 Z M 38.121094 15.390625 "/>
<path style=" stroke:none;fill-rule:nonzero;fill:rgb(22.352941%,30.980392%,88.235294%);fill-opacity:1;" d="M 34.769531 35.71875 L 34.839844 35.828125 C 34.921875 35.949219 35.03125 36.050781 35.160156 36.121094 L 35.28125 36.179688 L 35.171875 36.25 C 35.050781 36.328125 34.941406 36.429688 34.878906 36.558594 L 34.820312 36.679688 L 34.75 36.570312 C 34.679688 36.449219 34.570312 36.339844 34.441406 36.28125 L 34.320312 36.21875 L 34.429688 36.148438 C 34.558594 36.070312 34.660156 35.96875 34.71875 35.828125 Z M 34.769531 35.71875 "/>
<path style=" stroke:none;fill-rule:nonzero;fill:rgb(22.352941%,30.980392%,88.235294%);fill-opacity:1;" d="M 35.410156 40 L 35.441406 40.011719 C 35.480469 40.019531 35.511719 40.03125 35.550781 40.019531 L 35.578125 40.011719 L 35.570312 40.039062 C 35.558594 40.078125 35.550781 40.109375 35.558594 40.148438 L 35.570312 40.179688 L 35.539062 40.171875 C 35.5 40.160156 35.46875 40.148438 35.429688 40.160156 L 35.398438 40.171875 L 35.410156 40.140625 C 35.421875 40.101562 35.429688 40.070312 35.421875 40.03125 Z M 35.410156 40 "/>
<path style=" stroke:none;fill-rule:nonzero;fill:rgb(22.352941%,30.980392%,88.235294%);fill-opacity:1;" d="M 37.339844 11.101562 L 37.371094 11.109375 C 37.410156 11.121094 37.441406 11.128906 37.480469 11.121094 L 37.511719 11.109375 L 37.5 11.140625 C 37.488281 11.179688 37.480469 11.210938 37.488281 11.25 L 37.5 11.28125 L 37.46875 11.269531 C 37.429688 11.261719 37.398438 11.25 37.359375 11.261719 L 37.328125 11.269531 L 37.339844 11.238281 C 37.351562 11.199219 37.359375 11.171875 37.351562 11.128906 Z M 37.339844 11.101562 "/>
<path style=" stroke:none;fill-rule:nonzero;fill:rgb(22.352941%,30.980392%,88.235294%);fill-opacity:1;" d="M 10.960938 8.460938 L 10.988281 8.46875 C 11.03125 8.480469 11.058594 8.488281 11.101562 8.480469 L 11.128906 8.480469 L 11.121094 8.511719 C 11.109375 8.550781 11.101562 8.578125 11.109375 8.621094 L 11.121094 8.648438 L 11.089844 8.640625 C 11.050781 8.628906 11.019531 8.621094 10.980469 8.628906 L 10.949219 8.628906 L 10.960938 8.601562 C 10.96875 8.558594 10.980469 8.53125 10.96875 8.488281 Z M 10.960938 8.460938 "/>
<path style=" stroke:none;fill-rule:nonzero;fill:rgb(22.352941%,30.980392%,88.235294%);fill-opacity:1;" d="M 14.210938 30.960938 L 14.238281 30.96875 C 14.269531 30.980469 14.308594 30.988281 14.351562 30.980469 L 14.378906 30.96875 L 14.371094 31 C 14.359375 31.039062 14.351562 31.070312 14.359375 31.109375 L 14.371094 31.140625 L 14.339844 31.128906 C 14.300781 31.121094 14.269531 31.109375 14.230469 31.121094 L 14.199219 31.128906 L 14.210938 31.101562 C 14.21875 31.058594 14.230469 31.03125 14.21875 30.988281 Z M 14.210938 30.960938 "/>
<path style=" stroke:none;fill-rule:nonzero;fill:rgb(22.352941%,30.980392%,88.235294%);fill-opacity:1;" d="M 17.738281 39.660156 L 17.710938 39.691406 L 17.621094 39.78125 L 17.261719 40.128906 L 15.929688 41.410156 L 15.929688 41.398438 C 16 42.789062 16.089844 44.671875 16.179688 46.78125 L 16.179688 46.828125 L 16.140625 46.800781 L 15.660156 46.480469 L 12.621094 44.449219 L 12.609375 44.449219 L 12.609375 44.441406 C 12.160156 43.089844 11.769531 41.941406 11.5 41.140625 C 11.371094 40.738281 11.261719 40.421875 11.191406 40.199219 L 11.109375 39.949219 C 11.101562 39.921875 11.089844 39.898438 11.089844 39.890625 C 11.089844 39.871094 11.078125 39.871094 11.078125 39.871094 L 11.089844 39.890625 L 11.109375 39.949219 C 11.128906 40.011719 11.160156 40.089844 11.199219 40.199219 L 11.519531 41.128906 C 11.789062 41.941406 12.179688 43.070312 12.640625 44.429688 L 12.628906 44.421875 L 15.671875 46.449219 L 16.148438 46.769531 L 16.109375 46.789062 C 16.019531 44.691406 15.941406 42.800781 15.878906 41.410156 L 15.878906 41.398438 L 15.890625 41.398438 L 17.230469 40.128906 L 17.589844 39.789062 L 17.691406 39.699219 C 17.730469 39.671875 17.738281 39.660156 17.738281 39.660156 Z M 17.738281 39.660156 "/>
<path style=" stroke:none;fill-rule:nonzero;fill:rgb(22.352941%,30.980392%,88.235294%);fill-opacity:1;" d="M 16.328125 46.148438 L 16.320312 46.460938 L 16.570312 46.648438 L 16.269531 46.730469 L 16.171875 47.03125 L 15.988281 46.769531 L 15.679688 46.769531 L 15.871094 46.519531 L 15.78125 46.21875 L 16.070312 46.328125 Z M 16.328125 46.148438 "/>
<path style=" stroke:none;fill-rule:nonzero;fill:rgb(22.352941%,30.980392%,88.235294%);fill-opacity:1;" d="M 12.671875 44.019531 L 12.671875 44.21875 L 12.839844 44.328125 L 12.648438 44.398438 L 12.601562 44.601562 L 12.480469 44.441406 L 12.269531 44.449219 L 12.390625 44.28125 L 12.308594 44.089844 L 12.511719 44.148438 Z M 12.671875 44.019531 "/>
<path style=" stroke:none;fill-rule:nonzero;fill:rgb(22.352941%,30.980392%,88.235294%);fill-opacity:1;" d="M 11.089844 39.488281 L 11.238281 39.679688 L 11.488281 39.671875 L 11.351562 39.871094 L 11.441406 40.109375 L 11.199219 40.039062 L 11.011719 40.199219 L 11 39.949219 L 10.789062 39.808594 L 11.03125 39.730469 Z M 11.089844 39.488281 "/>
<path style=" stroke:none;fill-rule:nonzero;fill:rgb(22.352941%,30.980392%,88.235294%);fill-opacity:1;" d="M 17.589844 39.289062 L 17.738281 39.488281 L 17.988281 39.46875 L 17.851562 39.679688 L 17.941406 39.910156 L 17.699219 39.839844 L 17.511719 40 L 17.5 39.75 L 17.289062 39.621094 L 17.53125 39.53125 Z M 17.589844 39.289062 "/>
<path style=" stroke:none;fill-rule:nonzero;fill:rgb(22.352941%,30.980392%,88.235294%);fill-opacity:1;" d="M 15.878906 41.191406 L 15.980469 41.308594 L 16.140625 41.300781 L 16.050781 41.441406 L 16.109375 41.578125 L 15.949219 41.539062 L 15.828125 41.640625 L 15.828125 41.480469 L 15.691406 41.398438 L 15.839844 41.339844 Z M 15.878906 41.191406 "/>
</g>
<mask id="mask15">
  <g filter="url(#alpha)">
<rect x="0" y="0" width="50" height="50" style="fill:rgb(0%,0%,0%);fill-opacity:0.301961;stroke:none;"/>
  </g>
</mask>
<clipPath id="clip16">
  <rect x="0" y="0" width="50" height="50"/>
</clipPath>
<g id="surface50" clip-path="url(#clip16)">
<path style=" stroke:none;fill-rule:nonzero;fill:rgb(100%,100%,100%);fill-opacity:1;" d="M 9.730469 31.289062 C 9.730469 31.488281 9.570312 31.648438 9.371094 31.648438 C 9.171875 31.648438 9.011719 31.488281 9.011719 31.289062 C 9.011719 31.089844 9.171875 30.929688 9.371094 30.929688 C 9.570312 30.929688 9.730469 31.089844 9.730469 31.289062 Z M 9.730469 31.289062 "/>
</g>
<mask id="mask16">
  <g filter="url(#alpha)">
<rect x="0" y="0" width="50" height="50" style="fill:rgb(0%,0%,0%);fill-opacity:0.301961;stroke:none;"/>
  </g>
</mask>
<clipPath id="clip17">
  <rect x="0" y="0" width="50" height="50"/>
</clipPath>
<g id="surface53" clip-path="url(#clip17)">
<path style=" stroke:none;fill-rule:nonzero;fill:rgb(100%,100%,100%);fill-opacity:1;" d="M 9.21875 30.25 C 9.21875 30.371094 9.128906 30.460938 9.011719 30.460938 C 8.890625 30.460938 8.800781 30.371094 8.800781 30.25 C 8.800781 30.128906 8.890625 30.039062 9.011719 30.039062 C 9.128906 30.039062 9.21875 30.140625 9.21875 30.25 Z M 9.21875 30.25 "/>
</g>
<mask id="mask17">
  <g filter="url(#alpha)">
<rect x="0" y="0" width="50" height="50" style="fill:rgb(0%,0%,0%);fill-opacity:0.188235;stroke:none;"/>
  </g>
</mask>
<clipPath id="clip18">
  <rect x="0" y="0" width="50" height="50"/>
</clipPath>
<g id="surface56" clip-path="url(#clip18)">
<path style=" stroke:none;fill-rule:nonzero;fill:rgb(0%,0%,0%);fill-opacity:1;" d="M 7.878906 31.140625 C 7.890625 31.179688 5.988281 33 6.480469 33.390625 C 6.96875 33.78125 9.03125 32.78125 10.789062 31.359375 C 12.550781 29.941406 14.148438 28.21875 13.710938 27.761719 C 13.269531 27.300781 11.078125 28.648438 11.078125 28.648438 L 11.339844 28.820312 C 11.339844 28.820312 12.671875 27.96875 13.089844 28.300781 C 13.511719 28.628906 12.308594 29.921875 10.621094 31.160156 C 8.929688 32.390625 7.300781 33.261719 7.050781 32.921875 C 6.800781 32.578125 7.988281 31.460938 7.988281 31.460938 Z M 7.878906 31.140625 "/>
</g>
<mask id="mask18">
  <g filter="url(#alpha)">
<rect x="0" y="0" width="50" height="50" style="fill:rgb(0%,0%,0%);fill-opacity:0.301961;stroke:none;"/>
  </g>
</mask>
<clipPath id="clip19">
  <rect x="0" y="0" width="50" height="50"/>
</clipPath>
<g id="surface59" clip-path="url(#clip19)">
<path style=" stroke:none;fill-rule:nonzero;fill:rgb(100%,100%,100%);fill-opacity:1;" d="M 8.800781 29.050781 C 8.820312 29.070312 8.671875 29.199219 8.5 29.449219 C 8.039062 30.121094 8.019531 31 8.460938 31.679688 C 8.621094 31.941406 8.761719 32.078125 8.738281 32.101562 C 8.71875 32.121094 8.550781 32.011719 8.351562 31.75 C 8.238281 31.601562 8.148438 31.429688 8.078125 31.25 C 7.921875 30.800781 7.929688 30.308594 8.109375 29.871094 C 8.179688 29.691406 8.28125 29.53125 8.398438 29.378906 C 8.609375 29.128906 8.789062 29.03125 8.800781 29.050781 Z M 8.800781 29.050781 "/>
</g>
<mask id="mask19">
  <g filter="url(#alpha)">
<rect x="0" y="0" width="50" height="50" style="fill:rgb(0%,0%,0%);fill-opacity:0.180392;stroke:none;"/>
  </g>
</mask>
<clipPath id="clip20">
  <rect x="0" y="0" width="50" height="50"/>
</clipPath>
<g id="surface62" clip-path="url(#clip20)">
<path style=" stroke:none;fill-rule:nonzero;fill:rgb(0%,0%,0%);fill-opacity:1;" d="M 34.949219 9.21875 C 34.949219 9.058594 35.089844 8.929688 35.25 8.929688 C 35.410156 8.929688 35.539062 9.070312 35.539062 9.230469 C 35.539062 9.390625 35.398438 9.519531 35.238281 9.519531 C 35.078125 9.519531 34.949219 9.378906 34.949219 9.21875 Z M 34.949219 9.21875 "/>
</g>
<mask id="mask20">
  <g filter="url(#alpha)">
<rect x="0" y="0" width="50" height="50" style="fill:rgb(0%,0%,0%);fill-opacity:0.129412;stroke:none;"/>
  </g>
</mask>
<clipPath id="clip21">
  <rect x="0" y="0" width="50" height="50"/>
</clipPath>
<g id="surface65" clip-path="url(#clip21)">
<path style=" stroke:none;fill-rule:nonzero;fill:rgb(0%,0%,0%);fill-opacity:1;" d="M 35.550781 9.910156 C 35.550781 9.808594 35.628906 9.738281 35.730469 9.738281 C 35.828125 9.738281 35.898438 9.820312 35.898438 9.921875 C 35.898438 10.019531 35.820312 10.089844 35.71875 10.089844 C 35.621094 10.089844 35.550781 10.011719 35.550781 9.910156 Z M 35.550781 9.910156 "/>
</g>
<mask id="mask21">
  <g filter="url(#alpha)">
<rect x="0" y="0" width="50" height="50" style="fill:rgb(0%,0%,0%);fill-opacity:0.129412;stroke:none;"/>
  </g>
</mask>
<clipPath id="clip22">
  <rect x="0" y="0" width="50" height="50"/>
</clipPath>
<g id="surface68" clip-path="url(#clip22)">
<path style=" stroke:none;fill-rule:nonzero;fill:rgb(0%,0%,0%);fill-opacity:1;" d="M 35.320312 10.441406 C 35.351562 10.441406 35.378906 10.46875 35.378906 10.5 C 35.378906 10.539062 35.351562 10.558594 35.308594 10.558594 C 35.269531 10.558594 35.25 10.53125 35.25 10.488281 C 35.25 10.46875 35.28125 10.441406 35.320312 10.441406 Z M 35.320312 10.441406 "/>
</g>
</defs>
<g id="surface1">
<use xlink:href="#surface5" mask="url(#mask0)"/>
<use xlink:href="#surface8" mask="url(#mask1)"/>
<use xlink:href="#surface11" mask="url(#mask2)"/>
<use xlink:href="#surface14" mask="url(#mask3)"/>
<use xlink:href="#surface17" mask="url(#mask4)"/>
<use xlink:href="#surface20" mask="url(#mask5)"/>
<path style=" stroke:none;fill-rule:nonzero;fill:rgb(100%,33.333333%,44.313725%);fill-opacity:1;" d="M 14.621094 3.75 L 15.980469 3.75 L 15.980469 6.558594 C 15.980469 6.890625 15.710938 7.160156 15.378906 7.160156 L 15.21875 7.160156 C 14.890625 7.160156 14.621094 6.890625 14.621094 6.558594 Z M 14.621094 3.75 "/>
<path style=" stroke:none;fill-rule:nonzero;fill:rgb(100%,74.509804%,61.568627%);fill-opacity:1;" d="M 14.621094 3.75 L 15.300781 2.5 L 15.980469 3.75 Z M 14.621094 3.75 "/>
<path style=" stroke:none;fill-rule:nonzero;fill:rgb(100%,33.333333%,44.313725%);fill-opacity:1;" d="M 15.03125 3 C 15.03125 3 15.238281 3.308594 15.570312 3 L 15.300781 2.5 Z M 15.03125 3 "/>
<path style=" stroke:none;fill-rule:nonzero;fill:rgb(14.901961%,19.607843%,21.960784%);fill-opacity:1;" d="M 16 6.421875 C 15.769531 6.449219 15.539062 6.460938 15.308594 6.449219 C 15.078125 6.460938 14.851562 6.449219 14.621094 6.421875 C 14.851562 6.390625 15.078125 6.378906 15.308594 6.390625 C 15.539062 6.378906 15.769531 6.390625 16 6.421875 Z M 16 6.421875 "/>
<path style=" stroke:none;fill-rule:nonzero;fill:rgb(14.901961%,19.607843%,21.960784%);fill-opacity:1;" d="M 15.980469 6.210938 C 15.761719 6.238281 15.53125 6.25 15.300781 6.238281 C 15.070312 6.25 14.851562 6.238281 14.621094 6.210938 C 14.839844 6.179688 15.070312 6.171875 15.300781 6.179688 C 15.53125 6.171875 15.761719 6.179688 15.980469 6.210938 Z M 15.980469 6.210938 "/>
<path style=" stroke:none;fill-rule:nonzero;fill:rgb(98.039216%,98.039216%,98.039216%);fill-opacity:1;" d="M 15.019531 3.769531 C 15.03125 3.769531 15.050781 4.308594 15.050781 4.980469 C 15.050781 5.648438 15.03125 6.199219 15.019531 6.199219 C 15.011719 6.199219 14.988281 5.660156 14.988281 4.980469 C 14.988281 4.300781 15 3.769531 15.019531 3.769531 Z M 15.019531 3.769531 "/>
<path style=" stroke:none;fill-rule:nonzero;fill:rgb(98.039216%,98.039216%,98.039216%);fill-opacity:1;" d="M 15.570312 3.769531 C 15.589844 3.769531 15.601562 4.308594 15.601562 4.980469 C 15.601562 5.648438 15.578125 6.199219 15.570312 6.199219 C 15.558594 6.199219 15.539062 5.660156 15.539062 4.980469 C 15.539062 4.300781 15.550781 3.769531 15.570312 3.769531 Z M 15.570312 3.769531 "/>
<path style=" stroke:none;fill-rule:nonzero;fill:rgb(22.352941%,30.980392%,88.235294%);fill-opacity:1;" d="M 26.441406 42.101562 L 32.628906 42.371094 L 32.78125 42.730469 L 28.71875 49.300781 L 21.410156 49.089844 Z M 26.441406 42.101562 "/>
<path style=" stroke:none;fill-rule:nonzero;fill:rgb(87.843137%,87.843137%,87.843137%);fill-opacity:1;" d="M 21.128906 48.449219 L 28.488281 48.871094 L 32.339844 42.898438 L 29.640625 43.121094 L 22.800781 45.53125 Z M 21.128906 48.449219 "/>
<path style=" stroke:none;fill-rule:nonzero;fill:rgb(92.156863%,92.156863%,92.156863%);fill-opacity:1;" d="M 20.101562 48.011719 L 26.859375 48.121094 C 26.578125 47.261719 27.238281 46.039062 28.148438 45.628906 C 28.75 45.359375 29.890625 45.011719 30.46875 44.710938 C 31.578125 44.140625 32.589844 43.058594 32.5 42.128906 L 29.71875 42.039062 L 26.179688 41.898438 C 25.878906 42.78125 25.25 43.351562 24.289062 43.699219 C 23.429688 44.011719 22.449219 44.011719 21.609375 44.359375 C 20.238281 44.929688 19.589844 46.769531 20.101562 48.011719 "/>
<path style=" stroke:none;fill-rule:nonzero;fill:rgb(14.901961%,19.607843%,21.960784%);fill-opacity:1;" d="M 20.101562 48.011719 C 20.101562 48.011719 20.089844 48 20.078125 47.96875 L 20.03125 47.839844 C 20.011719 47.769531 19.988281 47.691406 19.96875 47.621094 C 19.949219 47.519531 19.929688 47.421875 19.921875 47.308594 C 19.898438 47.019531 19.921875 46.730469 19.96875 46.449219 C 20.050781 46.070312 20.199219 45.710938 20.398438 45.378906 C 20.460938 45.289062 20.519531 45.191406 20.589844 45.109375 C 20.628906 45.070312 20.660156 45.019531 20.699219 44.980469 L 20.828125 44.851562 C 20.871094 44.808594 20.921875 44.769531 20.96875 44.730469 C 21.019531 44.691406 21.058594 44.648438 21.121094 44.609375 C 21.230469 44.539062 21.339844 44.46875 21.449219 44.410156 C 21.921875 44.171875 22.480469 44.078125 23.058594 43.96875 C 23.351562 43.921875 23.648438 43.859375 23.949219 43.78125 C 24.261719 43.699219 24.558594 43.570312 24.839844 43.421875 C 24.988281 43.339844 25.121094 43.25 25.261719 43.148438 C 25.390625 43.050781 25.519531 42.929688 25.628906 42.800781 C 25.859375 42.53125 26.03125 42.230469 26.140625 41.890625 L 26.148438 41.871094 L 26.171875 41.871094 L 29.121094 41.980469 C 30.140625 42.019531 31.199219 42.050781 32.289062 42.078125 L 32.488281 42.089844 L 32.511719 42.089844 L 32.511719 42.109375 C 32.519531 42.320312 32.488281 42.53125 32.421875 42.730469 C 32.390625 42.828125 32.339844 42.921875 32.300781 43.019531 C 32.25 43.109375 32.199219 43.199219 32.140625 43.289062 C 31.910156 43.628906 31.621094 43.921875 31.300781 44.179688 C 30.988281 44.429688 30.648438 44.640625 30.289062 44.800781 C 29.929688 44.960938 29.570312 45.089844 29.21875 45.21875 C 28.871094 45.351562 28.519531 45.46875 28.191406 45.621094 C 28.03125 45.691406 27.871094 45.789062 27.730469 45.898438 C 27.660156 45.949219 27.601562 46.019531 27.53125 46.070312 C 27.460938 46.128906 27.410156 46.199219 27.359375 46.261719 C 27.140625 46.519531 26.980469 46.820312 26.890625 47.148438 C 26.789062 47.460938 26.789062 47.789062 26.871094 48.101562 L 26.878906 48.128906 L 26.851562 48.128906 L 21.929688 48.039062 L 20.570312 48.011719 L 20.210938 48 L 20.101562 48.011719 C 20.101562 48.011719 20.140625 48.011719 20.21875 48.011719 L 20.578125 48.011719 L 21.941406 48.03125 L 26.851562 48.101562 L 26.828125 48.128906 C 26.738281 47.808594 26.738281 47.46875 26.839844 47.160156 C 26.941406 46.828125 27.101562 46.519531 27.320312 46.25 C 27.371094 46.179688 27.441406 46.121094 27.5 46.050781 C 27.558594 45.980469 27.628906 45.921875 27.699219 45.871094 C 27.839844 45.761719 28 45.660156 28.171875 45.589844 C 28.5 45.441406 28.851562 45.320312 29.210938 45.191406 C 29.558594 45.058594 29.921875 44.929688 30.28125 44.769531 C 30.640625 44.609375 30.96875 44.398438 31.28125 44.148438 C 31.601562 43.898438 31.878906 43.609375 32.109375 43.28125 C 32.171875 43.199219 32.21875 43.109375 32.269531 43.019531 C 32.320312 42.929688 32.359375 42.839844 32.390625 42.738281 C 32.460938 42.550781 32.488281 42.339844 32.480469 42.140625 L 32.511719 42.160156 L 32.308594 42.148438 C 31.21875 42.109375 30.160156 42.078125 29.140625 42.039062 L 26.191406 41.929688 L 26.21875 41.910156 C 26.109375 42.25 25.929688 42.558594 25.699219 42.828125 C 25.589844 42.960938 25.460938 43.078125 25.320312 43.179688 C 25.191406 43.28125 25.050781 43.378906 24.898438 43.460938 C 24.609375 43.621094 24.308594 43.738281 24 43.820312 C 23.699219 43.898438 23.390625 43.960938 23.101562 44.011719 C 22.519531 44.109375 21.960938 44.210938 21.5 44.441406 C 21.390625 44.5 21.28125 44.558594 21.179688 44.628906 C 21.128906 44.671875 21.078125 44.710938 21.039062 44.738281 C 20.988281 44.78125 20.949219 44.820312 20.910156 44.859375 L 20.78125 44.988281 C 20.738281 45.03125 20.710938 45.078125 20.671875 45.121094 C 20.601562 45.199219 20.53125 45.289062 20.480469 45.390625 C 20.269531 45.710938 20.121094 46.070312 20.039062 46.449219 C 19.980469 46.730469 19.960938 47.019531 19.980469 47.300781 C 19.988281 47.398438 20 47.511719 20.019531 47.609375 C 20.03125 47.691406 20.050781 47.761719 20.070312 47.828125 C 20.089844 47.890625 20.101562 47.929688 20.109375 47.960938 C 20.089844 48 20.101562 48.011719 20.101562 48.011719 Z M 20.101562 48.011719 "/>
<path style=" stroke:none;fill-rule:nonzero;fill:rgb(14.901961%,19.607843%,21.960784%);fill-opacity:1;" d="M 28.070312 42.011719 C 28.070312 42.011719 28.078125 41.96875 28.089844 41.890625 C 28.101562 41.78125 28.078125 41.671875 28.039062 41.570312 C 27.980469 41.421875 27.871094 41.300781 27.71875 41.230469 C 27.351562 41.058594 26.921875 41.21875 26.75 41.578125 C 26.75 41.589844 26.738281 41.589844 26.738281 41.601562 C 26.671875 41.75 26.648438 41.910156 26.671875 42.070312 C 26.691406 42.179688 26.71875 42.28125 26.78125 42.371094 C 26.820312 42.441406 26.851562 42.46875 26.851562 42.46875 C 26.820312 42.449219 26.789062 42.421875 26.761719 42.378906 C 26.691406 42.289062 26.640625 42.179688 26.621094 42.070312 C 26.589844 41.898438 26.609375 41.730469 26.679688 41.570312 C 26.839844 41.171875 27.300781 40.988281 27.691406 41.148438 C 27.699219 41.160156 27.710938 41.160156 27.730469 41.171875 C 27.878906 41.25 28 41.378906 28.058594 41.539062 C 28.101562 41.648438 28.109375 41.761719 28.101562 41.871094 C 28.101562 41.898438 28.089844 41.929688 28.078125 41.960938 C 28.078125 42 28.070312 42.011719 28.070312 42.011719 Z M 28.070312 42.011719 "/>
<path style=" stroke:none;fill-rule:nonzero;fill:rgb(14.901961%,19.607843%,21.960784%);fill-opacity:1;" d="M 29.128906 42.011719 C 29.121094 42.011719 29.140625 41.96875 29.148438 41.890625 C 29.160156 41.78125 29.140625 41.671875 29.101562 41.570312 C 29.039062 41.421875 28.929688 41.300781 28.78125 41.230469 C 28.410156 41.058594 27.980469 41.21875 27.808594 41.589844 C 27.808594 41.601562 27.800781 41.601562 27.800781 41.609375 C 27.730469 41.761719 27.710938 41.921875 27.738281 42.078125 C 27.761719 42.191406 27.789062 42.289062 27.851562 42.378906 C 27.890625 42.449219 27.921875 42.480469 27.921875 42.480469 C 27.878906 42.460938 27.859375 42.429688 27.828125 42.390625 C 27.761719 42.300781 27.71875 42.191406 27.691406 42.078125 C 27.660156 41.910156 27.679688 41.738281 27.75 41.578125 C 27.921875 41.179688 28.371094 41 28.761719 41.160156 C 28.769531 41.160156 28.78125 41.171875 28.789062 41.179688 C 28.941406 41.261719 29.058594 41.390625 29.121094 41.550781 C 29.160156 41.660156 29.171875 41.769531 29.160156 41.878906 C 29.160156 41.910156 29.148438 41.941406 29.140625 41.96875 C 29.140625 41.988281 29.140625 42 29.128906 42.011719 Z M 29.128906 42.011719 "/>
<path style=" stroke:none;fill-rule:nonzero;fill:rgb(14.901961%,19.607843%,21.960784%);fill-opacity:1;" d="M 29.929688 42.058594 C 29.929688 42.058594 29.941406 42.019531 29.941406 41.941406 C 29.941406 41.828125 29.921875 41.71875 29.871094 41.621094 C 29.800781 41.46875 29.679688 41.359375 29.53125 41.300781 C 29.351562 41.230469 29.140625 41.230469 28.960938 41.308594 C 28.78125 41.390625 28.640625 41.539062 28.570312 41.730469 C 28.511719 41.878906 28.5 42.050781 28.53125 42.199219 C 28.550781 42.308594 28.601562 42.410156 28.660156 42.5 C 28.710938 42.558594 28.738281 42.589844 28.738281 42.601562 C 28.699219 42.578125 28.671875 42.550781 28.648438 42.519531 C 28.578125 42.429688 28.519531 42.328125 28.5 42.21875 C 28.460938 42.050781 28.46875 41.878906 28.53125 41.71875 C 28.671875 41.320312 29.109375 41.101562 29.519531 41.25 C 29.53125 41.25 29.539062 41.261719 29.558594 41.261719 C 29.71875 41.328125 29.839844 41.460938 29.910156 41.609375 C 29.960938 41.710938 29.980469 41.828125 29.96875 41.941406 C 29.96875 41.96875 29.960938 42 29.949219 42.03125 C 29.941406 42.050781 29.929688 42.058594 29.929688 42.058594 Z M 29.929688 42.058594 "/>
<path style=" stroke:none;fill-rule:nonzero;fill:rgb(14.901961%,19.607843%,21.960784%);fill-opacity:1;" d="M 30.800781 42.109375 C 30.800781 42.109375 30.800781 42.070312 30.800781 41.988281 C 30.800781 41.878906 30.769531 41.769531 30.710938 41.679688 C 30.628906 41.539062 30.511719 41.429688 30.351562 41.371094 C 29.96875 41.238281 29.550781 41.449219 29.421875 41.828125 C 29.421875 41.839844 29.421875 41.839844 29.410156 41.851562 C 29.359375 42 29.351562 42.171875 29.398438 42.328125 C 29.429688 42.441406 29.480469 42.53125 29.550781 42.621094 C 29.601562 42.679688 29.628906 42.710938 29.628906 42.710938 C 29.589844 42.691406 29.558594 42.660156 29.53125 42.628906 C 29.449219 42.550781 29.390625 42.449219 29.359375 42.339844 C 29.308594 42.179688 29.308594 42 29.359375 41.839844 C 29.421875 41.640625 29.558594 41.46875 29.75 41.371094 C 29.941406 41.269531 30.160156 41.261719 30.359375 41.328125 C 30.519531 41.390625 30.648438 41.511719 30.730469 41.660156 C 30.78125 41.761719 30.808594 41.878906 30.800781 41.988281 C 30.800781 42.019531 30.789062 42.050781 30.789062 42.078125 C 30.800781 42.101562 30.800781 42.109375 30.800781 42.109375 Z M 30.800781 42.109375 "/>
<path style=" stroke:none;fill-rule:nonzero;fill:rgb(14.901961%,19.607843%,21.960784%);fill-opacity:1;" d="M 31.660156 42.089844 C 31.660156 42.089844 31.660156 42.050781 31.660156 41.96875 C 31.648438 41.859375 31.621094 41.75 31.558594 41.660156 C 31.480469 41.519531 31.351562 41.410156 31.199219 41.359375 C 30.808594 41.238281 30.410156 41.460938 30.289062 41.839844 C 30.289062 41.851562 30.28125 41.859375 30.28125 41.871094 C 30.199219 42.128906 30.261719 42.421875 30.441406 42.628906 C 30.488281 42.691406 30.53125 42.71875 30.519531 42.71875 C 30.480469 42.699219 30.449219 42.679688 30.421875 42.648438 C 30.339844 42.570312 30.28125 42.46875 30.238281 42.359375 C 30.179688 42.199219 30.179688 42.019531 30.230469 41.859375 C 30.28125 41.660156 30.421875 41.480469 30.609375 41.378906 C 30.800781 41.28125 31.019531 41.261719 31.21875 41.320312 C 31.378906 41.378906 31.519531 41.488281 31.601562 41.640625 C 31.660156 41.738281 31.691406 41.859375 31.679688 41.96875 C 31.679688 42 31.679688 42.03125 31.671875 42.058594 C 31.671875 42.078125 31.671875 42.089844 31.660156 42.089844 Z M 31.660156 42.089844 "/>
<path style=" stroke:none;fill-rule:nonzero;fill:rgb(14.901961%,19.607843%,21.960784%);fill-opacity:1;" d="M 32.390625 42.191406 C 32.390625 42.191406 32.390625 42.148438 32.390625 42.070312 C 32.390625 41.960938 32.359375 41.851562 32.308594 41.761719 C 32.230469 41.621094 32.109375 41.511719 31.960938 41.449219 C 31.578125 41.320312 31.160156 41.519531 31.03125 41.898438 C 31.03125 41.910156 31.019531 41.921875 31.019531 41.921875 C 30.929688 42.179688 30.980469 42.46875 31.148438 42.691406 C 31.199219 42.75 31.230469 42.78125 31.230469 42.78125 C 31.191406 42.761719 31.160156 42.730469 31.128906 42.699219 C 31.050781 42.621094 31 42.519531 30.960938 42.410156 C 30.910156 42.25 30.910156 42.070312 30.96875 41.910156 C 31.03125 41.710938 31.179688 41.539062 31.359375 41.441406 C 31.550781 41.351562 31.769531 41.328125 31.96875 41.410156 C 32.128906 41.46875 32.261719 41.589844 32.339844 41.75 C 32.390625 41.851562 32.421875 41.96875 32.410156 42.078125 C 32.410156 42.109375 32.398438 42.140625 32.398438 42.171875 C 32.398438 42.179688 32.390625 42.191406 32.390625 42.191406 Z M 32.390625 42.191406 "/>
<path style=" stroke:none;fill-rule:nonzero;fill:rgb(58.431373%,65.098039%,89.803922%);fill-opacity:1;" d="M 35.578125 19.5 C 35.269531 19.488281 34.96875 19.5 34.660156 19.539062 C 32.75 19.789062 31.328125 21.410156 31.339844 23.339844 C 31.339844 23.949219 31.421875 24.558594 31.578125 25.148438 C 32.109375 27.039062 32.28125 28.699219 32.21875 29.519531 L 34 30.480469 C 34 30.480469 34.828125 29.289062 35.621094 28.78125 C 36.421875 28.269531 39.070312 26.898438 40.121094 25.5 C 40.800781 24.589844 40.929688 22.730469 39.308594 21.109375 C 38.320312 20.109375 36.988281 19.539062 35.578125 19.5 Z M 35.578125 19.5 "/>
<path style=" stroke:none;fill-rule:nonzero;fill:rgb(27.058824%,35.294118%,39.215686%);fill-opacity:1;" d="M 31.359375 31.578125 L 32.96875 32.449219 L 31.929688 33.78125 L 30.851562 33.289062 Z M 31.359375 31.578125 "/>
<path style=" stroke:none;fill-rule:nonzero;fill:rgb(14.901961%,19.607843%,21.960784%);fill-opacity:1;" d="M 31.441406 31.628906 C 31.429688 31.621094 31.589844 31.148438 31.800781 30.558594 C 32.011719 29.980469 32.191406 29.511719 32.210938 29.511719 C 32.230469 29.511719 32.058594 29.988281 31.851562 30.578125 C 31.640625 31.171875 31.460938 31.640625 31.441406 31.628906 Z M 31.441406 31.628906 "/>
<path style=" stroke:none;fill-rule:nonzero;fill:rgb(14.901961%,19.607843%,21.960784%);fill-opacity:1;" d="M 32.871094 32.390625 C 32.859375 32.378906 33.109375 31.929688 33.429688 31.378906 C 33.75 30.828125 34.03125 30.398438 34.039062 30.398438 C 34.050781 30.398438 33.800781 30.859375 33.480469 31.410156 C 33.160156 31.949219 32.878906 32.390625 32.871094 32.390625 Z M 32.871094 32.390625 "/>
<use xlink:href="#surface23" mask="url(#mask6)"/>
<path style=" stroke:none;fill-rule:nonzero;fill:rgb(14.901961%,19.607843%,21.960784%);fill-opacity:1;" d="M 40.121094 25.730469 C 40.109375 25.710938 40.101562 25.699219 40.101562 25.679688 C 40.089844 25.648438 40.070312 25.589844 40.039062 25.53125 C 39.960938 25.339844 39.851562 25.171875 39.730469 25.011719 C 39.539062 24.761719 39.308594 24.539062 39.050781 24.371094 C 38.710938 24.148438 38.328125 24 37.929688 23.949219 L 37.921875 23.949219 L 37.910156 23.941406 C 37.691406 23.640625 37.449219 23.371094 37.191406 23.109375 C 36.898438 22.828125 36.570312 22.601562 36.210938 22.429688 C 35.851562 22.269531 35.449219 22.191406 35.050781 22.210938 C 34.691406 22.21875 34.328125 22.339844 34.03125 22.550781 L 34.011719 22.558594 L 34 22.550781 C 33.699219 22.28125 33.320312 22.109375 32.910156 22.070312 C 32.601562 22.03125 32.28125 22.070312 31.988281 22.191406 C 31.800781 22.261719 31.621094 22.359375 31.460938 22.488281 C 31.398438 22.53125 31.359375 22.570312 31.339844 22.589844 C 31.328125 22.601562 31.308594 22.621094 31.300781 22.628906 C 31.308594 22.621094 31.320312 22.601562 31.339844 22.589844 C 31.371094 22.558594 31.410156 22.53125 31.460938 22.480469 C 31.621094 22.351562 31.800781 22.238281 31.988281 22.171875 C 32.289062 22.050781 32.609375 22.011719 32.929688 22.039062 C 33.339844 22.078125 33.730469 22.25 34.039062 22.53125 L 34.011719 22.53125 C 34.320312 22.320312 34.679688 22.191406 35.050781 22.179688 C 35.460938 22.160156 35.859375 22.238281 36.238281 22.398438 C 36.609375 22.570312 36.949219 22.800781 37.238281 23.089844 C 37.511719 23.351562 37.75 23.628906 37.960938 23.929688 L 37.941406 23.921875 C 38.351562 23.96875 38.738281 24.121094 39.078125 24.351562 C 39.339844 24.53125 39.578125 24.75 39.769531 25 C 39.890625 25.171875 39.988281 25.351562 40.070312 25.539062 C 40.101562 25.609375 40.109375 25.660156 40.128906 25.691406 C 40.109375 25.699219 40.121094 25.710938 40.121094 25.730469 Z M 40.121094 25.730469 "/>
<path style=" stroke:none;fill-rule:nonzero;fill:rgb(14.901961%,19.607843%,21.960784%);fill-opacity:1;" d="M 36.808594 28.078125 C 36.78125 27.941406 36.730469 27.808594 36.660156 27.691406 C 36.570312 27.550781 36.460938 27.441406 36.320312 27.359375 C 36.140625 27.25 35.941406 27.199219 35.730469 27.21875 L 35.699219 27.21875 L 35.699219 27.199219 C 35.609375 26.660156 35.25 26.210938 34.75 26 C 34.53125 25.910156 34.289062 25.878906 34.058594 25.890625 C 33.839844 25.910156 33.628906 25.96875 33.441406 26.070312 L 33.421875 26.078125 L 33.410156 26.070312 C 33.238281 25.898438 33.03125 25.78125 32.789062 25.738281 C 32.609375 25.699219 32.421875 25.710938 32.238281 25.761719 C 32.078125 25.800781 31.929688 25.878906 31.800781 25.980469 C 31.800781 25.980469 31.808594 25.96875 31.820312 25.960938 C 31.828125 25.949219 31.859375 25.921875 31.898438 25.898438 C 32 25.828125 32.109375 25.769531 32.230469 25.738281 C 32.421875 25.691406 32.609375 25.679688 32.800781 25.710938 C 33.050781 25.75 33.269531 25.871094 33.449219 26.050781 L 33.421875 26.039062 C 33.621094 25.941406 33.828125 25.871094 34.058594 25.859375 C 34.300781 25.839844 34.550781 25.878906 34.78125 25.96875 C 35.050781 26.078125 35.289062 26.269531 35.460938 26.5 C 35.621094 26.710938 35.71875 26.949219 35.761719 27.210938 L 35.730469 27.191406 C 35.949219 27.171875 36.160156 27.230469 36.339844 27.339844 C 36.480469 27.429688 36.601562 27.550781 36.691406 27.691406 C 36.75 27.78125 36.789062 27.878906 36.808594 27.980469 C 36.820312 28.011719 36.820312 28.03125 36.820312 28.058594 C 36.800781 28.070312 36.808594 28.078125 36.808594 28.078125 Z M 36.808594 28.078125 "/>
<path style=" stroke:none;fill-rule:nonzero;fill:rgb(14.901961%,19.607843%,21.960784%);fill-opacity:1;" d="M 32.660156 32.871094 C 32.660156 32.871094 32.640625 32.851562 32.601562 32.828125 C 32.539062 32.808594 32.46875 32.808594 32.410156 32.839844 C 32.359375 32.851562 32.320312 32.859375 32.269531 32.871094 C 32.210938 32.871094 32.148438 32.839844 32.109375 32.800781 C 32.019531 32.710938 31.988281 32.578125 31.910156 32.488281 C 31.871094 32.449219 31.820312 32.421875 31.761719 32.429688 C 31.699219 32.441406 31.648438 32.449219 31.589844 32.460938 C 31.539062 32.480469 31.480469 32.480469 31.421875 32.46875 C 31.300781 32.441406 31.210938 32.339844 31.179688 32.21875 C 31.171875 32.199219 31.171875 32.171875 31.179688 32.140625 C 31.179688 32.140625 31.179688 32.171875 31.199219 32.210938 C 31.21875 32.269531 31.261719 32.320312 31.308594 32.359375 C 31.339844 32.390625 31.378906 32.398438 31.429688 32.410156 C 31.480469 32.421875 31.53125 32.410156 31.578125 32.398438 C 31.640625 32.378906 31.699219 32.371094 31.761719 32.359375 C 31.828125 32.359375 31.898438 32.378906 31.949219 32.441406 C 32.039062 32.550781 32.070312 32.671875 32.140625 32.75 C 32.171875 32.789062 32.21875 32.808594 32.261719 32.808594 C 32.300781 32.808594 32.351562 32.800781 32.390625 32.789062 C 32.460938 32.769531 32.53125 32.769531 32.601562 32.800781 C 32.660156 32.839844 32.660156 32.871094 32.660156 32.871094 Z M 32.660156 32.871094 "/>
<path style=" stroke:none;fill-rule:nonzero;fill:rgb(14.901961%,19.607843%,21.960784%);fill-opacity:1;" d="M 32.851562 32.609375 C 32.578125 32.5 32.320312 32.371094 32.058594 32.21875 C 31.800781 32.089844 31.539062 31.941406 31.300781 31.78125 C 31.570312 31.890625 31.828125 32.019531 32.089844 32.171875 C 32.351562 32.300781 32.601562 32.449219 32.851562 32.609375 Z M 32.851562 32.609375 "/>
<path style=" stroke:none;fill-rule:nonzero;fill:rgb(14.901961%,19.607843%,21.960784%);fill-opacity:1;" d="M 32.53125 33.019531 C 32.53125 33.019531 32.511719 33.03125 32.46875 33.050781 C 32.449219 33.058594 32.429688 33.070312 32.398438 33.089844 C 32.359375 33.101562 32.328125 33.109375 32.289062 33.101562 C 32.191406 33.089844 32.101562 33.058594 32.019531 33 C 31.980469 32.960938 31.941406 32.921875 31.921875 32.859375 C 31.898438 32.808594 31.878906 32.761719 31.839844 32.710938 C 31.761719 32.640625 31.648438 32.609375 31.550781 32.628906 C 31.460938 32.640625 31.359375 32.628906 31.269531 32.601562 C 31.210938 32.578125 31.160156 32.53125 31.128906 32.46875 C 31.109375 32.429688 31.121094 32.398438 31.121094 32.398438 C 31.121094 32.398438 31.128906 32.421875 31.148438 32.460938 C 31.179688 32.511719 31.230469 32.550781 31.289062 32.558594 C 31.378906 32.578125 31.46875 32.589844 31.550781 32.570312 C 31.671875 32.550781 31.789062 32.589844 31.878906 32.671875 C 31.921875 32.71875 31.949219 32.769531 31.96875 32.828125 C 31.988281 32.878906 32.019531 32.921875 32.058594 32.949219 C 32.128906 33.011719 32.210938 33.039062 32.300781 33.050781 C 32.359375 33.058594 32.421875 33.039062 32.46875 33.019531 C 32.5 33.011719 32.53125 33.011719 32.53125 33.019531 Z M 32.53125 33.019531 "/>
<path style=" stroke:none;fill-rule:nonzero;fill:rgb(58.431373%,65.098039%,89.803922%);fill-opacity:1;" d="M 20.371094 22.671875 L 23.160156 22.261719 L 21.828125 20.378906 L 21.121094 20.421875 C 20.640625 20.449219 20.21875 20.738281 20.019531 21.191406 C 19.921875 21.429688 19.890625 21.691406 19.941406 21.941406 Z M 20.371094 22.671875 "/>
<use xlink:href="#surface26" mask="url(#mask7)"/>
<path style=" stroke:none;fill-rule:nonzero;fill:rgb(100%,74.509804%,61.568627%);fill-opacity:1;" d="M 32.328125 25.761719 C 32.359375 25.839844 32.390625 25.929688 32.421875 26.050781 C 32.449219 26.148438 32.460938 26.25 32.449219 26.351562 C 32.449219 26.46875 32.421875 26.601562 32.390625 26.71875 C 32.339844 26.828125 32.449219 26.929688 32.539062 26.878906 C 32.628906 26.828125 32.761719 26.539062 32.761719 26.171875 C 32.761719 25.800781 33.128906 26.238281 33.269531 26.398438 C 33.410156 26.558594 33.871094 27.03125 33.949219 27.03125 C 34.070312 27.019531 34.089844 26.890625 33.941406 26.738281 C 33.800781 26.578125 33.398438 26.089844 33.480469 26.019531 C 33.570312 25.949219 34.269531 26.769531 34.269531 26.769531 C 34.269531 26.769531 34.390625 26.96875 34.488281 26.890625 C 34.679688 26.75 33.859375 25.929688 33.78125 25.859375 C 33.730469 25.808594 33.820312 25.730469 33.871094 25.789062 C 33.929688 25.851562 34.550781 26.628906 34.75 26.480469 C 34.898438 26.371094 34.089844 25.800781 34.050781 25.570312 C 34.011719 25.339844 34.621094 26.070312 34.761719 25.960938 C 34.808594 25.921875 34.839844 25.878906 34.429688 25.519531 C 34.230469 25.339844 33.46875 24.808594 33.46875 24.808594 L 31.199219 18.238281 L 29.429688 19.25 Z M 32.328125 25.761719 "/>
<path style=" stroke:none;fill-rule:nonzero;fill:rgb(100%,74.509804%,61.568627%);fill-opacity:1;" d="M 18.71875 13.378906 L 16.171875 10.328125 C 16.140625 10.21875 16.101562 10.121094 16.039062 10.03125 C 15.921875 9.78125 15.699219 9.601562 15.441406 9.53125 C 15.28125 9.488281 15.089844 9.511719 14.960938 9.410156 C 14.898438 9.359375 14.871094 9.300781 14.808594 9.25 C 14.75 9.199219 14.648438 9.199219 14.609375 9.261719 C 14.589844 9.308594 14.589844 9.371094 14.621094 9.410156 C 14.71875 9.640625 14.871094 9.828125 15.058594 9.980469 C 14.820312 10.050781 14.480469 10.160156 14.480469 10.160156 C 14.480469 10.160156 13.941406 9.570312 13.660156 9.578125 C 13.378906 9.589844 13.878906 10.101562 13.878906 10.101562 C 13.878906 10.101562 13.441406 9.691406 13.300781 9.808594 C 13.160156 9.929688 13.511719 10.230469 13.511719 10.230469 C 13.398438 10.160156 13.28125 10.121094 13.148438 10.128906 C 13.019531 10.148438 12.921875 10.300781 12.980469 10.410156 C 13.011719 10.449219 13.050781 10.480469 13.089844 10.5 L 13.769531 10.878906 C 13.878906 10.949219 14 11 14.128906 11.011719 C 14.480469 11.019531 14.738281 10.808594 15.078125 10.820312 C 15.078125 10.820312 17.011719 14.871094 17.199219 15.078125 C 17.390625 15.289062 21.628906 15.570312 21.628906 15.570312 L 24.078125 13.460938 Z M 18.71875 13.378906 "/>
<path style=" stroke:none;fill-rule:nonzero;fill:rgb(58.431373%,65.098039%,89.803922%);fill-opacity:1;" d="M 26.398438 35.46875 L 29 36.601562 L 27.601562 39.851562 C 27.300781 39.699219 27.398438 37.75 27.398438 37.75 L 25.699219 37.089844 Z M 26.398438 35.46875 "/>
<use xlink:href="#surface29" mask="url(#mask8)"/>
<use xlink:href="#surface32" mask="url(#mask9)"/>
<path style=" stroke:none;fill-rule:nonzero;fill:rgb(14.901961%,19.607843%,21.960784%);fill-opacity:1;" d="M 27.359375 37.800781 C 27.378906 37.808594 27.421875 37.730469 27.5 37.671875 C 27.578125 37.609375 27.671875 37.601562 27.671875 37.578125 C 27.671875 37.558594 27.570312 37.550781 27.46875 37.621094 C 27.371094 37.691406 27.351562 37.800781 27.359375 37.800781 Z M 27.359375 37.800781 "/>
<path style=" stroke:none;fill-rule:nonzero;fill:rgb(14.901961%,19.607843%,21.960784%);fill-opacity:1;" d="M 27.359375 38.199219 C 27.371094 38.210938 27.429688 38.148438 27.519531 38.128906 C 27.609375 38.101562 27.691406 38.121094 27.691406 38.101562 C 27.699219 38.078125 27.609375 38.03125 27.5 38.070312 C 27.390625 38.101562 27.339844 38.191406 27.359375 38.199219 Z M 27.359375 38.199219 "/>
<path style=" stroke:none;fill-rule:nonzero;fill:rgb(14.901961%,19.607843%,21.960784%);fill-opacity:1;" d="M 27.679688 38.570312 C 27.691406 38.558594 27.621094 38.5 27.511719 38.5 C 27.410156 38.5 27.339844 38.558594 27.351562 38.578125 C 27.359375 38.589844 27.429688 38.570312 27.511719 38.570312 C 27.609375 38.558594 27.679688 38.589844 27.679688 38.570312 Z M 27.679688 38.570312 "/>
<path style=" stroke:none;fill-rule:nonzero;fill:rgb(14.901961%,19.607843%,21.960784%);fill-opacity:1;" d="M 26.988281 37.609375 C 27.011719 37.609375 27.019531 37.53125 27.058594 37.441406 C 27.109375 37.351562 27.160156 37.289062 27.148438 37.28125 C 27.140625 37.269531 27.050781 37.308594 27 37.410156 C 26.960938 37.511719 26.980469 37.609375 26.988281 37.609375 Z M 26.988281 37.609375 "/>
<path style=" stroke:none;fill-rule:nonzero;fill:rgb(14.901961%,19.607843%,21.960784%);fill-opacity:1;" d="M 26.640625 37.359375 C 26.648438 37.359375 26.679688 37.300781 26.710938 37.199219 C 26.730469 37.140625 26.730469 37.070312 26.730469 37.011719 C 26.730469 36.96875 26.730469 36.941406 26.71875 36.898438 C 26.71875 36.878906 26.710938 36.859375 26.699219 36.828125 C 26.691406 36.800781 26.648438 36.78125 26.621094 36.789062 C 26.589844 36.800781 26.570312 36.820312 26.550781 36.839844 C 26.539062 36.859375 26.539062 36.878906 26.53125 36.910156 C 26.511719 37.011719 26.519531 37.121094 26.558594 37.21875 C 26.601562 37.328125 26.648438 37.378906 26.648438 37.371094 C 26.648438 37.359375 26.621094 37.308594 26.601562 37.210938 C 26.589844 37.148438 26.578125 37.089844 26.578125 37.03125 C 26.578125 36.988281 26.578125 36.960938 26.589844 36.921875 C 26.601562 36.878906 26.609375 36.851562 26.628906 36.851562 C 26.648438 36.851562 26.640625 36.851562 26.648438 36.859375 C 26.660156 36.878906 26.660156 36.890625 26.660156 36.910156 C 26.671875 36.949219 26.671875 36.980469 26.671875 37.019531 C 26.671875 37.078125 26.671875 37.140625 26.660156 37.199219 C 26.648438 37.25 26.648438 37.308594 26.640625 37.359375 Z M 26.640625 37.359375 "/>
<path style=" stroke:none;fill-rule:nonzero;fill:rgb(14.901961%,19.607843%,21.960784%);fill-opacity:1;" d="M 26.671875 37.351562 C 26.671875 37.351562 26.628906 37.289062 26.53125 37.238281 C 26.46875 37.210938 26.410156 37.191406 26.339844 37.191406 C 26.300781 37.191406 26.269531 37.191406 26.230469 37.191406 C 26.179688 37.191406 26.128906 37.21875 26.101562 37.261719 C 26.089844 37.289062 26.089844 37.320312 26.121094 37.351562 C 26.140625 37.371094 26.148438 37.378906 26.171875 37.390625 C 26.199219 37.410156 26.238281 37.429688 26.28125 37.441406 C 26.339844 37.460938 26.410156 37.460938 26.480469 37.441406 C 26.589844 37.410156 26.640625 37.351562 26.640625 37.351562 C 26.589844 37.371094 26.53125 37.378906 26.480469 37.398438 C 26.421875 37.410156 26.359375 37.398438 26.308594 37.390625 C 26.28125 37.378906 26.25 37.359375 26.21875 37.351562 C 26.191406 37.328125 26.171875 37.308594 26.171875 37.289062 C 26.191406 37.269531 26.21875 37.25 26.25 37.261719 C 26.289062 37.261719 26.320312 37.261719 26.359375 37.261719 C 26.421875 37.261719 26.480469 37.28125 26.539062 37.300781 C 26.609375 37.320312 26.671875 37.359375 26.671875 37.351562 Z M 26.671875 37.351562 "/>
<path style=" stroke:none;fill-rule:nonzero;fill:rgb(58.431373%,65.098039%,89.803922%);fill-opacity:1;" d="M 24.390625 39.941406 L 25.46875 42.199219 L 25.808594 44.238281 C 25.828125 44.378906 25.960938 44.46875 26.101562 44.449219 C 26.109375 44.449219 26.109375 44.449219 26.121094 44.449219 C 26.199219 44.429688 26.269531 44.371094 26.300781 44.300781 C 26.5 43.808594 27.21875 42 27.128906 41.839844 C 27.03125 41.648438 26.148438 39.378906 26.148438 39.378906 Z M 24.390625 39.941406 "/>
<use xlink:href="#surface35" mask="url(#mask10)"/>
<use xlink:href="#surface38" mask="url(#mask11)"/>
<path style=" stroke:none;fill-rule:nonzero;fill:rgb(14.901961%,19.607843%,21.960784%);fill-opacity:1;" d="M 26.191406 43.199219 C 26.019531 43.089844 25.800781 43.078125 25.621094 43.179688 C 25.621094 43.179688 25.640625 43.140625 25.691406 43.109375 C 25.761719 43.070312 25.828125 43.050781 25.910156 43.050781 C 25.988281 43.050781 26.058594 43.078125 26.128906 43.121094 C 26.179688 43.171875 26.191406 43.199219 26.191406 43.199219 Z M 26.191406 43.199219 "/>
<path style=" stroke:none;fill-rule:nonzero;fill:rgb(14.901961%,19.607843%,21.960784%);fill-opacity:1;" d="M 26.171875 43.578125 C 26.089844 43.570312 26.011719 43.570312 25.921875 43.570312 C 25.839844 43.589844 25.761719 43.609375 25.679688 43.640625 C 25.671875 43.628906 25.761719 43.53125 25.910156 43.511719 C 26 43.5 26.101562 43.519531 26.171875 43.578125 Z M 26.171875 43.578125 "/>
<path style=" stroke:none;fill-rule:nonzero;fill:rgb(14.901961%,19.607843%,21.960784%);fill-opacity:1;" d="M 26.320312 42.679688 C 26.191406 42.660156 26.070312 42.648438 25.941406 42.640625 C 25.808594 42.648438 25.691406 42.679688 25.570312 42.710938 C 25.78125 42.550781 26.078125 42.539062 26.320312 42.679688 Z M 26.320312 42.679688 "/>
<path style=" stroke:none;fill-rule:nonzero;fill:rgb(14.901961%,19.607843%,21.960784%);fill-opacity:1;" d="M 26.039062 41.960938 C 26.039062 41.980469 25.890625 41.980469 25.71875 42.050781 C 25.550781 42.121094 25.441406 42.21875 25.429688 42.199219 C 25.488281 42.101562 25.589844 42.03125 25.699219 42 C 25.808594 41.949219 25.929688 41.929688 26.039062 41.960938 Z M 26.039062 41.960938 "/>
<path style=" stroke:none;fill-rule:nonzero;fill:rgb(14.901961%,19.607843%,21.960784%);fill-opacity:1;" d="M 25.738281 41.289062 C 25.628906 41.300781 25.511719 41.328125 25.410156 41.371094 C 25.308594 41.429688 25.21875 41.5 25.140625 41.578125 C 25.128906 41.578125 25.148438 41.539062 25.191406 41.480469 C 25.238281 41.410156 25.308594 41.351562 25.390625 41.308594 C 25.46875 41.269531 25.550781 41.25 25.640625 41.25 C 25.710938 41.269531 25.75 41.28125 25.738281 41.289062 Z M 25.738281 41.289062 "/>
<path style=" stroke:none;fill-rule:nonzero;fill:rgb(14.901961%,19.607843%,21.960784%);fill-opacity:1;" d="M 25.359375 41.25 C 25.339844 41.21875 25.328125 41.199219 25.320312 41.160156 C 25.289062 41.078125 25.28125 40.988281 25.289062 40.898438 C 25.289062 40.839844 25.308594 40.769531 25.351562 40.71875 C 25.378906 40.691406 25.421875 40.679688 25.460938 40.691406 C 25.5 40.710938 25.53125 40.738281 25.539062 40.78125 C 25.601562 40.941406 25.539062 41.128906 25.390625 41.21875 C 25.238281 41.308594 25.058594 41.289062 24.921875 41.191406 C 24.890625 41.160156 24.871094 41.121094 24.859375 41.078125 C 24.859375 41.039062 24.890625 41 24.929688 40.988281 C 24.988281 40.980469 25.058594 40.980469 25.121094 41 C 25.199219 41.019531 25.28125 41.058594 25.359375 41.109375 C 25.410156 41.140625 25.429688 41.171875 25.429688 41.171875 C 25.328125 41.109375 25.230469 41.058594 25.121094 41.039062 C 25.070312 41.019531 25.011719 41.019531 24.960938 41.03125 C 24.941406 41.039062 24.921875 41.058594 24.921875 41.078125 C 24.921875 41.109375 24.941406 41.128906 24.960938 41.148438 C 25.078125 41.238281 25.238281 41.25 25.371094 41.171875 C 25.5 41.089844 25.558594 40.941406 25.511719 40.800781 C 25.5 40.769531 25.480469 40.75 25.449219 40.738281 C 25.429688 40.730469 25.398438 40.738281 25.390625 40.75 C 25.359375 40.789062 25.339844 40.851562 25.339844 40.898438 C 25.320312 41.019531 25.328125 41.128906 25.359375 41.25 Z M 25.359375 41.25 "/>
<path style=" stroke:none;fill-rule:nonzero;fill:rgb(14.901961%,19.607843%,21.960784%);fill-opacity:1;" d="M 28.019531 35.738281 L 25.058594 33.75 L 26.039062 24.140625 L 23.238281 22.5 L 20.679688 21.910156 C 20.679688 21.910156 19.609375 24.140625 19.128906 25.558594 C 18.121094 28.589844 17.410156 29.679688 17.570312 31.871094 C 17.621094 32.570312 20.191406 34.308594 21.808594 35.269531 C 21.828125 35.460938 21.859375 35.648438 21.898438 35.839844 C 22.449219 38.351562 24.148438 41.679688 24.148438 41.679688 L 26.71875 40.488281 L 25.890625 37.648438 L 26.75 38.148438 Z M 21.660156 29.539062 L 22.011719 28 C 21.941406 28.980469 21.871094 30 21.820312 30.980469 C 21.660156 30.519531 21.601562 30.03125 21.660156 29.539062 Z M 21.660156 29.539062 "/>
<path style=" stroke:none;fill-rule:nonzero;fill:rgb(27.058824%,35.294118%,39.215686%);fill-opacity:1;" d="M 24.148438 41.691406 C 24.140625 41.679688 24.140625 41.660156 24.128906 41.648438 L 24.078125 41.53125 L 23.878906 41.058594 C 23.710938 40.648438 23.460938 40.058594 23.171875 39.328125 C 22.878906 38.589844 22.53125 37.71875 22.171875 36.738281 C 22.078125 36.488281 22 36.238281 21.921875 35.980469 C 21.878906 35.851562 21.839844 35.71875 21.820312 35.578125 C 21.808594 35.550781 21.808594 35.511719 21.800781 35.480469 L 21.789062 35.371094 L 21.769531 35.160156 C 21.738281 34.878906 21.710938 34.589844 21.699219 34.289062 C 21.691406 34.140625 21.679688 34 21.679688 33.851562 C 21.671875 33.699219 21.671875 33.550781 21.679688 33.398438 C 21.71875 32.191406 21.828125 31.050781 21.910156 30.011719 C 21.988281 28.96875 22.078125 28.03125 22.140625 27.238281 C 22.210938 26.449219 22.25 25.808594 22.269531 25.371094 C 22.28125 25.148438 22.289062 24.980469 22.300781 24.859375 L 22.308594 24.730469 C 22.308594 24.71875 22.308594 24.699219 22.308594 24.691406 C 22.308594 24.699219 22.308594 24.71875 22.308594 24.730469 C 22.308594 24.761719 22.308594 24.808594 22.308594 24.859375 C 22.308594 24.980469 22.300781 25.148438 22.289062 25.371094 C 22.269531 25.808594 22.230469 26.449219 22.171875 27.238281 C 22.109375 28.03125 22.03125 28.96875 21.949219 30.011719 C 21.871094 31.050781 21.769531 32.199219 21.730469 33.398438 C 21.71875 33.550781 21.730469 33.699219 21.730469 33.851562 C 21.730469 34 21.738281 34.148438 21.75 34.289062 C 21.769531 34.589844 21.789062 34.871094 21.820312 35.148438 L 21.839844 35.359375 L 21.851562 35.460938 C 21.859375 35.488281 21.859375 35.53125 21.871094 35.558594 C 21.890625 35.699219 21.941406 35.828125 21.96875 35.960938 C 22.050781 36.21875 22.128906 36.46875 22.21875 36.71875 C 22.570312 37.699219 22.910156 38.578125 23.199219 39.320312 C 23.488281 40.058594 23.730469 40.648438 23.890625 41.058594 C 23.96875 41.261719 24.039062 41.421875 24.078125 41.53125 C 24.101562 41.578125 24.121094 41.621094 24.128906 41.648438 C 24.140625 41.679688 24.148438 41.691406 24.148438 41.691406 Z M 24.148438 41.691406 "/>
<path style=" stroke:none;fill-rule:nonzero;fill:rgb(27.058824%,35.294118%,39.215686%);fill-opacity:1;" d="M 22.171875 24.339844 C 22.171875 24.339844 22.140625 24.320312 22.101562 24.289062 C 22.050781 24.230469 22 24.160156 21.96875 24.089844 C 21.878906 23.851562 21.839844 23.589844 21.839844 23.328125 C 21.839844 23.070312 21.851562 22.808594 21.878906 22.550781 C 21.890625 22.441406 21.898438 22.339844 21.921875 22.230469 C 21.929688 22.339844 21.929688 22.441406 21.921875 22.550781 C 21.910156 22.75 21.890625 23.019531 21.898438 23.320312 C 21.898438 23.570312 21.941406 23.828125 22.011719 24.070312 C 22.039062 24.140625 22.070312 24.210938 22.121094 24.269531 C 22.148438 24.308594 22.171875 24.339844 22.171875 24.339844 Z M 22.171875 24.339844 "/>
<path style=" stroke:none;fill-rule:nonzero;fill:rgb(27.058824%,35.294118%,39.215686%);fill-opacity:1;" d="M 21.058594 22.058594 C 21.089844 22.148438 21.089844 22.238281 21.078125 22.328125 C 21.050781 22.78125 20.78125 23.179688 20.371094 23.371094 C 20.289062 23.410156 20.199219 23.441406 20.109375 23.449219 C 20.109375 23.441406 20.210938 23.410156 20.351562 23.339844 C 20.730469 23.140625 20.988281 22.761719 21.039062 22.328125 C 21.058594 22.160156 21.050781 22.058594 21.058594 22.058594 Z M 21.058594 22.058594 "/>
<path style=" stroke:none;fill-rule:nonzero;fill:rgb(27.058824%,35.294118%,39.215686%);fill-opacity:1;" d="M 25.660156 27.640625 C 25.660156 27.640625 25.660156 27.648438 25.660156 27.671875 C 25.660156 27.691406 25.660156 27.71875 25.648438 27.761719 C 25.640625 27.839844 25.628906 27.949219 25.621094 28.089844 C 25.589844 28.378906 25.539062 28.789062 25.488281 29.289062 C 25.378906 30.308594 25.21875 31.71875 25.039062 33.269531 C 24.980469 34 25.03125 34.738281 25.191406 35.449219 C 25.261719 35.761719 25.351562 36.070312 25.460938 36.371094 C 25.558594 36.648438 25.648438 36.921875 25.738281 37.160156 C 25.910156 37.640625 26.039062 38.03125 26.140625 38.308594 C 26.179688 38.441406 26.21875 38.550781 26.25 38.621094 L 26.28125 38.699219 C 26.28125 38.710938 26.289062 38.71875 26.289062 38.730469 C 26.289062 38.730469 26.289062 38.71875 26.28125 38.699219 C 26.269531 38.679688 26.261719 38.648438 26.25 38.621094 C 26.21875 38.550781 26.179688 38.441406 26.140625 38.308594 L 25.730469 37.171875 C 25.640625 36.929688 25.550781 36.660156 25.449219 36.378906 C 25.339844 36.078125 25.25 35.769531 25.179688 35.460938 C 25.019531 34.738281 24.96875 34 25.03125 33.261719 C 25.199219 31.699219 25.378906 30.300781 25.5 29.28125 C 25.558594 28.78125 25.609375 28.359375 25.648438 28.078125 C 25.671875 27.941406 25.679688 27.828125 25.691406 27.75 C 25.691406 27.71875 25.699219 27.691406 25.699219 27.671875 C 25.660156 27.660156 25.660156 27.648438 25.660156 27.640625 Z M 25.660156 27.640625 "/>
<path style=" stroke:none;fill-rule:nonzero;fill:rgb(100%,74.509804%,61.568627%);fill-opacity:1;" d="M 20.679688 21.890625 L 21.128906 20.730469 L 22.171875 22.28125 L 20.789062 21.929688 "/>
<path style=" stroke:none;fill-rule:nonzero;fill:rgb(58.431373%,65.098039%,89.803922%);fill-opacity:1;" d="M 31.511719 18.410156 L 30.28125 15.660156 C 30.128906 15.21875 29.859375 15.148438 29.628906 14.890625 L 26.550781 13.148438 C 24.308594 12.230469 23.078125 15.308594 23.078125 15.308594 L 21.039062 19.960938 C 18.640625 20.75 20.339844 22.601562 20.339844 22.601562 C 20.339844 22.601562 19.691406 21.46875 20.328125 21.058594 C 21 20.628906 21.75 21.761719 22.460938 22.828125 C 23.300781 24.089844 26.050781 24.921875 26.050781 24.921875 C 26.371094 24.578125 26.28125 23.398438 26.53125 22.761719 C 26.609375 22.558594 28.511719 18.160156 28.511719 18.160156 L 29.25 19.941406 C 29.25 19.941406 30.191406 18.828125 30.648438 18.660156 C 30.941406 18.550781 31.21875 18.46875 31.511719 18.410156 Z M 31.511719 18.410156 "/>
<path style=" stroke:none;fill-rule:nonzero;fill:rgb(14.901961%,19.607843%,21.960784%);fill-opacity:1;" d="M 26.058594 20.371094 C 26.03125 20.398438 26 20.421875 25.96875 20.441406 C 25.878906 20.488281 25.789062 20.539062 25.691406 20.570312 C 25.03125 20.820312 24.300781 20.699219 23.75 20.269531 C 23.671875 20.210938 23.589844 20.140625 23.519531 20.058594 C 23.488281 20.03125 23.46875 20 23.449219 19.96875 C 23.460938 19.960938 23.558594 20.089844 23.769531 20.238281 C 24.320312 20.648438 25.03125 20.761719 25.679688 20.53125 C 25.921875 20.441406 26.058594 20.359375 26.058594 20.371094 Z M 26.058594 20.371094 "/>
<path style=" stroke:none;fill-rule:nonzero;fill:rgb(58.431373%,65.098039%,89.803922%);fill-opacity:1;" d="M 20.960938 16 L 22.859375 16.179688 L 25.898438 12.96875 L 24.109375 12.910156 L 20.929688 13.21875 C 21.101562 14.128906 21.109375 15.070312 20.960938 16 Z M 20.960938 16 "/>
<path style=" stroke:none;fill-rule:nonzero;fill:rgb(14.901961%,19.607843%,21.960784%);fill-opacity:1;" d="M 23.601562 14.308594 C 23.601562 14.328125 23.589844 14.351562 23.578125 14.371094 L 23.5 14.53125 C 23.429688 14.679688 23.328125 14.878906 23.21875 15.128906 C 22.980469 15.640625 22.671875 16.351562 22.328125 17.128906 C 22 17.921875 21.679688 18.628906 21.441406 19.140625 C 21.320312 19.398438 21.230469 19.601562 21.160156 19.738281 L 21.078125 19.898438 C 21.070312 19.921875 21.058594 19.941406 21.050781 19.960938 C 21.058594 19.941406 21.058594 19.921875 21.070312 19.898438 L 21.140625 19.730469 L 21.410156 19.121094 C 21.628906 18.601562 21.941406 17.890625 22.28125 17.101562 C 22.621094 16.308594 22.941406 15.609375 23.179688 15.101562 C 23.300781 14.851562 23.398438 14.640625 23.480469 14.511719 C 23.519531 14.449219 23.539062 14.390625 23.570312 14.351562 C 23.570312 14.339844 23.578125 14.320312 23.601562 14.308594 Z M 23.601562 14.308594 "/>
<path style=" stroke:none;fill-rule:nonzero;fill:rgb(14.901961%,19.607843%,21.960784%);fill-opacity:1;" d="M 29.390625 15.238281 C 29.398438 15.25 29.28125 15.308594 29.121094 15.449219 C 29.03125 15.53125 28.941406 15.621094 28.859375 15.710938 C 28.769531 15.828125 28.691406 15.960938 28.621094 16.089844 C 28.558594 16.230469 28.511719 16.371094 28.46875 16.519531 C 28.441406 16.640625 28.429688 16.761719 28.421875 16.890625 C 28.410156 17.101562 28.441406 17.230469 28.429688 17.230469 C 28.421875 17.199219 28.410156 17.171875 28.410156 17.140625 C 28.398438 17.101562 28.398438 17.070312 28.390625 17.03125 C 28.378906 16.980469 28.378906 16.929688 28.378906 16.878906 C 28.378906 16.75 28.390625 16.628906 28.421875 16.5 C 28.449219 16.351562 28.5 16.199219 28.570312 16.058594 C 28.640625 15.921875 28.71875 15.789062 28.820312 15.671875 C 28.898438 15.570312 28.988281 15.488281 29.089844 15.410156 C 29.128906 15.378906 29.171875 15.351562 29.210938 15.328125 C 29.238281 15.308594 29.269531 15.289062 29.300781 15.269531 C 29.328125 15.25 29.359375 15.238281 29.390625 15.238281 Z M 29.390625 15.238281 "/>
<path style=" stroke:none;fill-rule:nonzero;fill:rgb(100%,74.509804%,61.568627%);fill-opacity:1;" d="M 29.921875 10.828125 L 28.140625 14.160156 C 27.851562 14.699219 27.191406 14.929688 26.621094 14.679688 C 26.03125 14.410156 25.769531 13.71875 26.03125 13.128906 C 26.039062 13.109375 26.050781 13.089844 26.058594 13.058594 L 26.371094 12.480469 C 26.371094 12.480469 25.589844 11.980469 25.960938 11.140625 C 26.28125 10.390625 27.46875 8.28125 27.71875 7.839844 L 29.21875 8.511719 C 30.050781 8.941406 30.371094 9.960938 29.941406 10.789062 C 29.941406 10.800781 29.929688 10.808594 29.921875 10.828125 Z M 29.921875 10.828125 "/>
<path style=" stroke:none;fill-rule:nonzero;fill:rgb(92.156863%,60%,43.137255%);fill-opacity:1;" d="M 26.378906 12.46875 C 26.761719 12.648438 27.191406 12.710938 27.601562 12.648438 C 27.601562 12.648438 27.078125 13.128906 26.28125 12.691406 Z M 26.378906 12.46875 "/>
<path style=" stroke:none;fill-rule:nonzero;fill:rgb(14.901961%,19.607843%,21.960784%);fill-opacity:1;" d="M 26.949219 9.800781 C 26.921875 9.859375 26.949219 9.941406 27.011719 9.96875 C 27.070312 10 27.148438 9.980469 27.179688 9.921875 C 27.210938 9.859375 27.179688 9.78125 27.121094 9.75 C 27.058594 9.71875 26.988281 9.738281 26.949219 9.800781 Z M 26.949219 9.800781 "/>
<path style=" stroke:none;fill-rule:nonzero;fill:rgb(14.901961%,19.607843%,21.960784%);fill-opacity:1;" d="M 26.960938 9.699219 C 26.96875 9.71875 27.089844 9.699219 27.21875 9.75 C 27.351562 9.800781 27.410156 9.910156 27.429688 9.898438 C 27.449219 9.890625 27.441406 9.859375 27.410156 9.808594 C 27.371094 9.75 27.308594 9.699219 27.25 9.671875 C 27.179688 9.640625 27.109375 9.628906 27.039062 9.648438 C 26.980469 9.660156 26.949219 9.679688 26.960938 9.699219 Z M 26.960938 9.699219 "/>
<path style=" stroke:none;fill-rule:nonzero;fill:rgb(14.901961%,19.607843%,21.960784%);fill-opacity:1;" d="M 28.148438 10.390625 C 28.121094 10.449219 28.148438 10.53125 28.210938 10.558594 C 28.269531 10.589844 28.351562 10.570312 28.378906 10.511719 C 28.410156 10.449219 28.378906 10.371094 28.320312 10.339844 C 28.261719 10.308594 28.179688 10.328125 28.148438 10.390625 Z M 28.148438 10.390625 "/>
<path style=" stroke:none;fill-rule:nonzero;fill:rgb(14.901961%,19.607843%,21.960784%);fill-opacity:1;" d="M 28.210938 10.28125 C 28.21875 10.300781 28.339844 10.28125 28.46875 10.328125 C 28.601562 10.378906 28.660156 10.488281 28.679688 10.488281 C 28.699219 10.480469 28.691406 10.449219 28.660156 10.398438 C 28.621094 10.339844 28.558594 10.289062 28.5 10.261719 C 28.429688 10.230469 28.359375 10.21875 28.289062 10.238281 C 28.230469 10.25 28.199219 10.269531 28.210938 10.28125 Z M 28.210938 10.28125 "/>
<path style=" stroke:none;fill-rule:nonzero;fill:rgb(14.901961%,19.607843%,21.960784%);fill-opacity:1;" d="M 27.320312 11.019531 C 27.261719 10.96875 27.199219 10.929688 27.128906 10.890625 C 27.101562 10.871094 27.070312 10.851562 27.070312 10.828125 C 27.070312 10.808594 27.101562 10.769531 27.140625 10.738281 L 27.351562 10.53125 C 27.53125 10.359375 27.699219 10.171875 27.859375 9.980469 C 27.660156 10.128906 27.480469 10.308594 27.308594 10.488281 L 27.109375 10.699219 C 27.070312 10.730469 27.050781 10.769531 27.039062 10.820312 C 27.039062 10.851562 27.050781 10.871094 27.070312 10.890625 C 27.089844 10.898438 27.101562 10.910156 27.121094 10.921875 C 27.171875 10.96875 27.238281 11 27.320312 11.019531 Z M 27.320312 11.019531 "/>
<path style=" stroke:none;fill-rule:nonzero;fill:rgb(14.901961%,19.607843%,21.960784%);fill-opacity:1;" d="M 27.648438 11.28125 C 27.628906 11.269531 27.570312 11.410156 27.410156 11.449219 C 27.25 11.488281 27.109375 11.410156 27.101562 11.429688 C 27.089844 11.449219 27.121094 11.46875 27.179688 11.5 C 27.261719 11.539062 27.351562 11.550781 27.441406 11.519531 C 27.519531 11.5 27.589844 11.441406 27.640625 11.371094 C 27.660156 11.328125 27.660156 11.289062 27.648438 11.28125 Z M 27.648438 11.28125 "/>
<path style=" stroke:none;fill-rule:nonzero;fill:rgb(14.901961%,19.607843%,21.960784%);fill-opacity:1;" d="M 28.398438 9.769531 C 28.398438 9.808594 28.53125 9.851562 28.671875 9.941406 C 28.808594 10.03125 28.921875 10.121094 28.949219 10.101562 C 28.96875 10.089844 28.960938 10.050781 28.929688 9.988281 C 28.828125 9.851562 28.679688 9.761719 28.511719 9.738281 C 28.441406 9.730469 28.398438 9.75 28.398438 9.769531 Z M 28.398438 9.769531 "/>
<path style=" stroke:none;fill-rule:nonzero;fill:rgb(14.901961%,19.607843%,21.960784%);fill-opacity:1;" d="M 27.171875 9.351562 C 27.179688 9.390625 27.28125 9.398438 27.390625 9.441406 C 27.5 9.488281 27.578125 9.550781 27.609375 9.53125 C 27.640625 9.511719 27.628906 9.480469 27.601562 9.441406 C 27.558594 9.378906 27.511719 9.339844 27.449219 9.308594 C 27.390625 9.28125 27.320312 9.28125 27.25 9.289062 C 27.191406 9.300781 27.171875 9.328125 27.171875 9.351562 Z M 27.171875 9.351562 "/>
<path style=" stroke:none;fill-rule:nonzero;fill:rgb(100%,74.509804%,61.568627%);fill-opacity:1;" d="M 29.359375 11.328125 C 29.378906 11.328125 30.011719 11.421875 29.738281 11.980469 C 29.46875 12.539062 28.960938 12.148438 28.960938 12.140625 C 28.960938 12.109375 29.359375 11.328125 29.359375 11.328125 Z M 29.359375 11.328125 "/>
<path style=" stroke:none;fill-rule:nonzero;fill:rgb(92.156863%,60%,43.137255%);fill-opacity:1;" d="M 29.238281 12 C 29.238281 12 29.25 12.011719 29.261719 12.03125 C 29.28125 12.050781 29.300781 12.058594 29.328125 12.070312 C 29.429688 12.058594 29.511719 12 29.550781 11.910156 C 29.570312 11.859375 29.589844 11.808594 29.589844 11.761719 C 29.601562 11.71875 29.578125 11.679688 29.550781 11.648438 C 29.53125 11.628906 29.5 11.628906 29.480469 11.648438 C 29.46875 11.660156 29.460938 11.671875 29.460938 11.671875 C 29.460938 11.671875 29.449219 11.648438 29.46875 11.628906 C 29.480469 11.621094 29.488281 11.609375 29.511719 11.609375 C 29.53125 11.609375 29.550781 11.609375 29.570312 11.621094 C 29.609375 11.648438 29.628906 11.699219 29.628906 11.761719 C 29.628906 11.820312 29.621094 11.878906 29.589844 11.929688 C 29.550781 12.03125 29.441406 12.101562 29.328125 12.101562 C 29.300781 12.089844 29.269531 12.070312 29.25 12.039062 C 29.238281 12.019531 29.238281 12 29.238281 12 Z M 29.238281 12 "/>
<path style=" stroke:none;fill-rule:nonzero;fill:rgb(14.901961%,19.607843%,21.960784%);fill-opacity:1;" d="M 29.691406 11.460938 C 29.578125 11.410156 29.460938 11.410156 29.359375 11.480469 C 29.289062 11.539062 29.238281 11.628906 29.160156 11.699219 C 29.089844 11.769531 28.980469 11.789062 28.890625 11.738281 C 28.839844 11.691406 28.820312 11.621094 28.828125 11.558594 C 28.839844 11.488281 28.871094 11.429688 28.910156 11.378906 C 29.058594 11.128906 29.238281 10.890625 29.371094 10.628906 C 29.511719 10.371094 29.570312 10.078125 29.550781 9.78125 C 29.519531 9.480469 29.328125 9.21875 29.050781 9.109375 C 28.871094 9.050781 28.660156 9.058594 28.480469 9.011719 C 28.261719 8.941406 28.070312 8.78125 27.988281 8.558594 C 27.96875 8.519531 27.941406 8.46875 27.921875 8.429688 C 27.929688 8.421875 27.988281 8.300781 28.058594 8.28125 C 28.550781 8.109375 29.21875 8.300781 29.628906 8.628906 C 30.050781 8.960938 30.308594 9.460938 30.328125 9.988281 C 30.328125 10.5 30 11.070312 29.691406 11.460938 "/>
<path style=" stroke:none;fill-rule:nonzero;fill:rgb(14.901961%,19.607843%,21.960784%);fill-opacity:1;" d="M 29.699219 11.390625 C 29.859375 11.121094 30.109375 10.929688 30.300781 10.691406 C 30.488281 10.449219 30.628906 10.109375 30.488281 9.839844 C 30.441406 9.75 30.371094 9.671875 30.328125 9.570312 C 30.300781 9.46875 30.28125 9.359375 30.269531 9.261719 C 30.21875 8.929688 30.019531 8.648438 29.730469 8.480469 C 29.53125 8.371094 29.308594 8.320312 29.109375 8.21875 C 28.789062 8.050781 28.558594 7.75 28.21875 7.609375 C 28.109375 7.558594 27.988281 7.550781 27.878906 7.601562 C 27.78125 7.648438 27.730469 7.769531 27.78125 7.878906 C 27.78125 7.890625 27.789062 7.890625 27.789062 7.898438 C 27.769531 7.800781 27.671875 7.75 27.570312 7.769531 C 27.558594 7.769531 27.550781 7.78125 27.539062 7.78125 C 27.441406 7.828125 27.390625 7.941406 27.398438 8.050781 C 27.410156 8.160156 27.449219 8.261719 27.519531 8.339844 C 27.730469 8.628906 28.03125 8.839844 28.371094 8.929688 L 29.140625 8.871094 L 29.769531 9.328125 L 30.230469 10.070312 L 29.390625 11.160156 Z M 29.699219 11.390625 "/>
<path style=" stroke:none;fill-rule:nonzero;fill:rgb(100%,86.666667%,59.607843%);fill-opacity:1;" d="M 24.910156 7.039062 C 24.808594 5.550781 23.53125 4.421875 22.039062 4.519531 C 20.550781 4.621094 19.421875 5.898438 19.519531 7.390625 C 19.589844 8.429688 20.25 9.339844 21.21875 9.730469 C 21.238281 10.050781 21.261719 10.410156 21.261719 10.410156 L 23.621094 10.261719 C 23.621094 10.261719 23.609375 9.878906 23.589844 9.539062 C 24.46875 9.011719 24.980469 8.050781 24.910156 7.039062 Z M 24.910156 7.039062 "/>
<path style=" stroke:none;fill-rule:nonzero;fill:rgb(14.901961%,19.607843%,21.960784%);fill-opacity:1;" d="M 22.78125 10.289062 C 22.78125 10.289062 22.78125 10.28125 22.78125 10.261719 C 22.78125 10.238281 22.78125 10.199219 22.78125 10.160156 C 22.78125 10.070312 22.789062 9.949219 22.808594 9.78125 C 22.828125 9.609375 22.839844 9.421875 22.878906 9.191406 C 22.921875 8.929688 22.988281 8.671875 23.078125 8.421875 C 23.128906 8.28125 23.199219 8.140625 23.28125 8 C 23.320312 7.929688 23.378906 7.871094 23.449219 7.820312 C 23.53125 7.78125 23.621094 7.769531 23.710938 7.808594 C 23.75 7.828125 23.789062 7.871094 23.800781 7.910156 C 23.820312 7.949219 23.820312 8 23.800781 8.050781 C 23.761719 8.140625 23.691406 8.199219 23.601562 8.238281 C 23.21875 8.390625 22.789062 8.199219 22.640625 7.820312 C 22.640625 7.820312 22.640625 7.808594 22.640625 7.808594 C 22.601562 7.710938 22.589844 7.601562 22.601562 7.5 C 22.621094 7.390625 22.71875 7.300781 22.828125 7.300781 C 22.890625 7.300781 22.941406 7.328125 22.96875 7.390625 C 23 7.441406 23.011719 7.5 23 7.550781 C 22.96875 7.660156 22.910156 7.761719 22.828125 7.828125 C 22.671875 7.988281 22.441406 8.070312 22.210938 8.050781 C 21.980469 8.03125 21.78125 7.898438 21.660156 7.699219 C 21.601562 7.601562 21.589844 7.480469 21.621094 7.371094 C 21.648438 7.269531 21.761719 7.210938 21.859375 7.238281 C 21.871094 7.238281 21.878906 7.25 21.890625 7.25 C 21.941406 7.269531 21.980469 7.308594 22.011719 7.359375 C 22.039062 7.410156 22.050781 7.460938 22.058594 7.511719 C 22.070312 7.609375 22.070312 7.71875 22.039062 7.820312 C 21.988281 8.019531 21.859375 8.191406 21.691406 8.300781 C 21.519531 8.398438 21.328125 8.441406 21.140625 8.410156 C 21.050781 8.398438 20.960938 8.359375 20.890625 8.300781 C 20.820312 8.230469 20.808594 8.121094 20.859375 8.039062 C 20.890625 8 20.929688 7.980469 20.980469 7.96875 C 21.019531 7.960938 21.070312 7.96875 21.109375 7.988281 C 21.191406 8.03125 21.25 8.089844 21.289062 8.160156 C 21.371094 8.300781 21.429688 8.441406 21.488281 8.570312 C 21.738281 9.101562 21.921875 9.539062 22.039062 9.839844 C 22.101562 9.988281 22.148438 10.109375 22.179688 10.191406 C 22.191406 10.230469 22.210938 10.261719 22.210938 10.28125 C 22.210938 10.289062 22.21875 10.300781 22.21875 10.308594 L 22.210938 10.28125 L 22.171875 10.191406 L 22.03125 9.839844 C 21.898438 9.539062 21.71875 9.101562 21.46875 8.578125 C 21.410156 8.449219 21.339844 8.308594 21.261719 8.171875 C 21.21875 8.101562 21.171875 8.039062 21.101562 8.011719 C 21.03125 7.980469 20.941406 7.988281 20.878906 8.050781 C 20.839844 8.121094 20.851562 8.210938 20.910156 8.269531 C 20.96875 8.328125 21.058594 8.371094 21.140625 8.371094 C 21.328125 8.398438 21.511719 8.359375 21.671875 8.261719 C 21.828125 8.148438 21.949219 7.988281 22 7.800781 C 22.03125 7.699219 22.03125 7.601562 22.019531 7.5 C 22.011719 7.398438 21.960938 7.308594 21.871094 7.261719 C 21.828125 7.238281 21.769531 7.238281 21.730469 7.261719 C 21.679688 7.28125 21.648438 7.320312 21.640625 7.371094 C 21.609375 7.46875 21.621094 7.578125 21.679688 7.671875 C 21.789062 7.859375 21.980469 7.980469 22.199219 8 C 22.421875 8.019531 22.628906 7.941406 22.789062 7.789062 C 22.871094 7.71875 22.929688 7.628906 22.949219 7.53125 C 22.960938 7.480469 22.949219 7.429688 22.921875 7.390625 C 22.898438 7.351562 22.851562 7.320312 22.800781 7.320312 C 22.75 7.320312 22.699219 7.339844 22.671875 7.371094 C 22.628906 7.398438 22.609375 7.449219 22.601562 7.5 C 22.578125 7.601562 22.601562 7.699219 22.628906 7.789062 C 22.769531 8.160156 23.179688 8.351562 23.550781 8.210938 C 23.550781 8.210938 23.558594 8.210938 23.558594 8.199219 C 23.640625 8.171875 23.699219 8.101562 23.738281 8.019531 C 23.769531 7.941406 23.738281 7.851562 23.660156 7.820312 C 23.589844 7.78125 23.5 7.789062 23.429688 7.828125 C 23.359375 7.871094 23.308594 7.929688 23.269531 8 C 23.191406 8.128906 23.128906 8.269531 23.078125 8.410156 C 22.988281 8.660156 22.921875 8.910156 22.878906 9.171875 C 22.839844 9.398438 22.820312 9.601562 22.800781 9.761719 C 22.78125 9.921875 22.78125 10.050781 22.769531 10.140625 C 22.769531 10.179688 22.761719 10.210938 22.761719 10.238281 C 22.78125 10.28125 22.78125 10.289062 22.78125 10.289062 Z M 22.78125 10.289062 "/>
<path style=" stroke:none;fill-rule:nonzero;fill:rgb(14.901961%,19.607843%,21.960784%);fill-opacity:1;" d="M 23.480469 10.699219 L 21.449219 10.828125 C 21.371094 10.839844 21.289062 10.769531 21.289062 10.691406 C 21.28125 10.609375 21.351562 10.53125 21.429688 10.53125 L 23.460938 10.398438 C 23.539062 10.390625 23.621094 10.460938 23.621094 10.539062 C 23.628906 10.621094 23.558594 10.691406 23.480469 10.699219 Z M 23.480469 10.699219 "/>
<path style=" stroke:none;fill-rule:nonzero;fill:rgb(14.901961%,19.607843%,21.960784%);fill-opacity:1;" d="M 23.488281 10.828125 L 21.460938 10.960938 C 21.378906 10.96875 21.308594 11.039062 21.320312 11.121094 C 21.328125 11.199219 21.398438 11.269531 21.480469 11.261719 L 21.699219 11.25 L 22.03125 11.789062 C 22.070312 11.851562 22.140625 11.890625 22.210938 11.878906 L 22.929688 11.828125 C 23 11.820312 23.070312 11.78125 23.101562 11.710938 L 23.351562 11.128906 L 23.5 11.121094 C 23.578125 11.109375 23.640625 11.03125 23.628906 10.949219 C 23.628906 10.890625 23.570312 10.828125 23.488281 10.828125 Z M 23.488281 10.828125 "/>
<use xlink:href="#surface41" mask="url(#mask12)"/>
<use xlink:href="#surface44" mask="url(#mask13)"/>
<path style=" stroke:none;fill-rule:nonzero;fill:rgb(27.058824%,35.294118%,39.215686%);fill-opacity:1;" d="M 23.070312 11.769531 C 23.019531 11.761719 22.96875 11.75 22.929688 11.738281 C 22.820312 11.71875 22.699219 11.710938 22.578125 11.71875 C 22.46875 11.730469 22.351562 11.761719 22.25 11.808594 C 22.171875 11.851562 22.121094 11.871094 22.121094 11.871094 C 22.160156 11.839844 22.199219 11.808594 22.238281 11.789062 C 22.351562 11.738281 22.460938 11.699219 22.578125 11.691406 C 22.699219 11.679688 22.820312 11.691406 22.941406 11.71875 C 22.980469 11.730469 23.03125 11.75 23.070312 11.769531 Z M 23.070312 11.769531 "/>
<path style=" stroke:none;fill-rule:nonzero;fill:rgb(27.058824%,35.294118%,39.215686%);fill-opacity:1;" d="M 23.359375 11.148438 C 23.359375 11.160156 22.988281 11.191406 22.539062 11.21875 C 22.089844 11.25 21.71875 11.269531 21.71875 11.261719 C 21.71875 11.25 22.089844 11.21875 22.539062 11.191406 C 22.988281 11.160156 23.359375 11.140625 23.359375 11.148438 Z M 23.359375 11.148438 "/>
<path style=" stroke:none;fill-rule:nonzero;fill:rgb(27.058824%,35.294118%,39.215686%);fill-opacity:1;" d="M 23.25 11.398438 C 23.179688 11.421875 23.121094 11.429688 23.050781 11.429688 C 22.929688 11.449219 22.761719 11.460938 22.570312 11.480469 C 22.378906 11.5 22.210938 11.5 22.089844 11.511719 C 22.019531 11.519531 21.960938 11.519531 21.890625 11.511719 C 21.960938 11.5 22.019531 11.488281 22.089844 11.488281 L 23.050781 11.410156 C 23.121094 11.398438 23.179688 11.398438 23.25 11.398438 Z M 23.25 11.398438 "/>
<path style=" stroke:none;fill-rule:nonzero;fill:rgb(100%,33.333333%,44.313725%);fill-opacity:1;" d="M 8.648438 24.96875 L 9.089844 25.679688 C 9.089844 25.679688 10.96875 23.949219 12.828125 24.441406 C 12.828125 24.429688 11.160156 23.011719 8.648438 24.96875 Z M 8.648438 24.96875 "/>
<path style=" stroke:none;fill-rule:nonzero;fill:rgb(100%,33.333333%,44.313725%);fill-opacity:1;" d="M 12.828125 24.429688 C 12.828125 24.429688 14.210938 22.929688 16.230469 23.269531 L 16.78125 23.351562 L 16.609375 23.03125 C 16.609375 23.039062 13.089844 21.828125 12.828125 24.429688 Z M 12.828125 24.429688 "/>
<path style=" stroke:none;fill-rule:nonzero;fill:rgb(96.078431%,96.078431%,96.078431%);fill-opacity:1;" d="M 9.921875 19.378906 C 9.921875 19.378906 7.160156 18.898438 5.351562 19.878906 L 8.230469 25.300781 C 8.230469 25.300781 10.578125 23.03125 12.839844 24.429688 Z M 9.921875 19.378906 "/>
<path style=" stroke:none;fill-rule:nonzero;fill:rgb(14.901961%,19.607843%,21.960784%);fill-opacity:1;" d="M 9.921875 19.378906 C 9.929688 19.390625 9.929688 19.390625 9.941406 19.398438 L 9.980469 19.46875 L 10.140625 19.738281 L 10.738281 20.769531 L 12.859375 24.421875 C 12.871094 24.429688 12.859375 24.449219 12.851562 24.449219 C 12.839844 24.449219 12.828125 24.449219 12.828125 24.449219 C 12.511719 24.25 12.148438 24.109375 11.769531 24.039062 C 11.570312 24.011719 11.371094 23.988281 11.171875 24 C 10.960938 24.011719 10.761719 24.03125 10.558594 24.078125 C 9.710938 24.289062 8.921875 24.710938 8.28125 25.300781 L 8.261719 25.320312 C 8.25 25.328125 8.230469 25.328125 8.21875 25.320312 L 8.21875 25.308594 L 5.328125 19.898438 C 5.320312 19.890625 5.328125 19.878906 5.339844 19.871094 C 5.921875 19.578125 6.539062 19.398438 7.179688 19.320312 C 7.671875 19.261719 8.160156 19.238281 8.648438 19.261719 C 9.058594 19.269531 9.378906 19.308594 9.589844 19.328125 C 9.699219 19.339844 9.78125 19.359375 9.839844 19.371094 L 9.898438 19.378906 L 9.921875 19.378906 L 9.898438 19.371094 L 9.839844 19.359375 C 9.78125 19.351562 9.699219 19.339844 9.589844 19.328125 C 9.371094 19.308594 9.058594 19.28125 8.648438 19.269531 C 8.160156 19.261719 7.671875 19.28125 7.179688 19.339844 C 6.539062 19.421875 5.929688 19.609375 5.359375 19.890625 L 5.371094 19.859375 L 8.25 25.269531 L 8.210938 25.261719 L 8.230469 25.238281 C 8.570312 24.941406 8.941406 24.679688 9.328125 24.460938 C 9.710938 24.25 10.121094 24.101562 10.539062 24 C 10.738281 23.960938 10.949219 23.929688 11.160156 23.921875 C 11.359375 23.921875 11.570312 23.929688 11.769531 23.960938 C 12.148438 24.03125 12.519531 24.171875 12.851562 24.378906 L 12.820312 24.410156 L 10.730469 20.761719 L 10.140625 19.730469 L 9.988281 19.460938 C 9.96875 19.429688 9.960938 19.410156 9.949219 19.390625 C 9.929688 19.398438 9.921875 19.390625 9.921875 19.378906 Z M 9.921875 19.378906 "/>
<path style=" stroke:none;fill-rule:nonzero;fill:rgb(96.078431%,96.078431%,96.078431%);fill-opacity:1;" d="M 14.261719 18.269531 C 14.261719 18.269531 12.171875 16.941406 9.949219 19.378906 L 12.859375 24.429688 C 12.859375 24.429688 13.449219 22.378906 16.929688 23.089844 Z M 14.261719 18.269531 "/>
<path style=" stroke:none;fill-rule:nonzero;fill:rgb(14.901961%,19.607843%,21.960784%);fill-opacity:1;" d="M 14.261719 18.269531 C 14.269531 18.28125 14.269531 18.28125 14.269531 18.289062 C 14.28125 18.308594 14.289062 18.328125 14.308594 18.359375 L 14.460938 18.621094 L 15.011719 19.601562 L 16.949219 23.089844 C 16.960938 23.101562 16.949219 23.121094 16.941406 23.121094 C 16.929688 23.121094 16.929688 23.121094 16.921875 23.121094 L 16.398438 23.03125 C 16.308594 23.011719 16.21875 23.011719 16.128906 23 L 15.859375 22.980469 C 15.769531 22.96875 15.671875 22.96875 15.578125 22.96875 L 15.300781 22.96875 C 15.199219 22.96875 15.109375 22.988281 15.019531 23 C 14.921875 23.011719 14.828125 23.019531 14.730469 23.039062 L 14.449219 23.101562 L 14.171875 23.199219 C 14.078125 23.238281 13.988281 23.28125 13.898438 23.328125 C 13.851562 23.351562 13.808594 23.378906 13.769531 23.398438 L 13.640625 23.480469 C 13.558594 23.539062 13.480469 23.609375 13.398438 23.671875 C 13.328125 23.738281 13.261719 23.808594 13.191406 23.890625 C 13.058594 24.050781 12.949219 24.230469 12.878906 24.421875 C 12.871094 24.429688 12.859375 24.441406 12.839844 24.441406 C 12.828125 24.441406 12.828125 24.429688 12.828125 24.429688 L 12.710938 24.230469 C 11.679688 22.441406 10.71875 20.769531 9.921875 19.378906 C 9.910156 19.371094 9.910156 19.359375 9.921875 19.351562 C 10.359375 18.851562 10.898438 18.449219 11.5 18.171875 C 11.96875 17.960938 12.480469 17.859375 12.988281 17.890625 C 13.320312 17.910156 13.640625 17.980469 13.941406 18.101562 C 14.019531 18.128906 14.101562 18.171875 14.171875 18.210938 L 14.230469 18.238281 L 14.261719 18.269531 L 14.238281 18.25 L 14.179688 18.21875 C 14.128906 18.191406 14.050781 18.160156 13.949219 18.121094 C 13.171875 17.820312 12.289062 17.851562 11.53125 18.210938 C 10.941406 18.488281 10.410156 18.898438 9.96875 19.390625 L 9.96875 19.359375 L 12.769531 24.210938 L 12.890625 24.410156 L 12.839844 24.421875 C 12.910156 24.21875 13.019531 24.03125 13.160156 23.871094 C 13.230469 23.789062 13.300781 23.710938 13.371094 23.640625 C 13.449219 23.570312 13.53125 23.5 13.609375 23.449219 L 13.738281 23.371094 C 13.78125 23.339844 13.828125 23.320312 13.871094 23.289062 C 13.960938 23.25 14.050781 23.191406 14.148438 23.160156 L 14.429688 23.058594 L 14.71875 22.988281 C 14.820312 22.96875 14.910156 22.949219 15.011719 22.949219 C 15.109375 22.941406 15.199219 22.921875 15.300781 22.921875 L 15.578125 22.921875 C 15.671875 22.921875 15.769531 22.921875 15.859375 22.929688 L 16.128906 22.949219 C 16.21875 22.949219 16.308594 22.960938 16.398438 22.980469 L 16.921875 23.070312 L 16.890625 23.109375 C 16.101562 21.671875 15.429688 20.460938 14.96875 19.609375 C 14.738281 19.191406 14.558594 18.851562 14.429688 18.621094 L 14.289062 18.359375 C 14.28125 18.328125 14.261719 18.308594 14.25 18.289062 C 14.261719 18.28125 14.261719 18.269531 14.261719 18.269531 Z M 14.261719 18.269531 "/>
<path style=" stroke:none;fill-rule:nonzero;fill:rgb(96.078431%,96.078431%,96.078431%);fill-opacity:1;" d="M 6.121094 17.28125 L 9.238281 23.28125 C 9.238281 23.28125 11.769531 23.171875 12.839844 24.398438 L 9.949219 19.378906 C 9.960938 19.378906 8.261719 17.28125 6.121094 17.28125 Z M 6.121094 17.28125 "/>
<path style=" stroke:none;fill-rule:nonzero;fill:rgb(14.901961%,19.607843%,21.960784%);fill-opacity:1;" d="M 6.121094 17.28125 L 6.199219 17.28125 L 6.441406 17.289062 C 6.46875 17.289062 6.5 17.289062 6.519531 17.289062 L 6.609375 17.308594 L 6.820312 17.339844 C 6.898438 17.351562 6.980469 17.371094 7.058594 17.398438 C 7.148438 17.421875 7.238281 17.449219 7.328125 17.480469 C 8.070312 17.730469 9.070312 18.328125 9.96875 19.359375 L 12.859375 24.378906 C 12.871094 24.390625 12.859375 24.410156 12.851562 24.421875 C 12.839844 24.429688 12.828125 24.429688 12.820312 24.421875 L 12.699219 24.300781 C 12.46875 24.078125 12.199219 23.898438 11.898438 23.769531 C 11.609375 23.640625 11.308594 23.539062 11.011719 23.480469 C 10.429688 23.351562 9.828125 23.289062 9.238281 23.308594 C 9.230469 23.308594 9.21875 23.308594 9.21875 23.300781 C 8.308594 21.539062 7.539062 20.03125 6.988281 18.96875 C 6.71875 18.441406 6.511719 18.019531 6.359375 17.730469 C 6.289062 17.589844 6.230469 17.480469 6.191406 17.398438 L 6.148438 17.320312 L 6.121094 17.28125 C 6.128906 17.28125 6.128906 17.289062 6.140625 17.308594 L 6.191406 17.398438 L 6.359375 17.730469 L 7.011719 18.96875 L 9.261719 23.269531 L 9.238281 23.261719 C 9.839844 23.25 10.441406 23.300781 11.019531 23.429688 C 11.328125 23.5 11.628906 23.601562 11.921875 23.71875 C 12.21875 23.851562 12.5 24.03125 12.730469 24.261719 L 12.859375 24.378906 L 12.808594 24.410156 C 11.738281 22.539062 10.75 20.808594 9.929688 19.390625 C 9.53125 18.921875 9.070312 18.511719 8.570312 18.160156 C 8.179688 17.890625 7.761719 17.671875 7.320312 17.511719 C 7.230469 17.480469 7.140625 17.449219 7.050781 17.429688 C 6.96875 17.398438 6.890625 17.378906 6.808594 17.371094 L 6.601562 17.328125 L 6.511719 17.308594 L 6.429688 17.300781 Z M 6.121094 17.28125 "/>
<use xlink:href="#surface47" mask="url(#mask14)"/>
<path style=" stroke:none;fill-rule:nonzero;fill:rgb(99.215686%,70.980392%,0%);fill-opacity:1;" d="M 12.230469 30.601562 C 12.230469 31.820312 11.242188 32.808594 10.019531 32.808594 C 8.800781 32.808594 7.808594 31.820312 7.808594 30.601562 C 7.808594 29.378906 8.800781 28.390625 10.019531 28.390625 C 11.242188 28.390625 12.230469 29.378906 12.230469 30.601562 Z M 12.230469 30.601562 "/>
<use xlink:href="#surface50" mask="url(#mask15)"/>
<use xlink:href="#surface53" mask="url(#mask16)"/>
<path style=" stroke:none;fill-rule:nonzero;fill:rgb(58.431373%,65.098039%,89.803922%);fill-opacity:1;" d="M 7.878906 31.140625 C 7.890625 31.179688 5.988281 33 6.480469 33.390625 C 6.96875 33.78125 9.03125 32.78125 10.789062 31.359375 C 12.550781 29.941406 14.148438 28.21875 13.710938 27.761719 C 13.269531 27.300781 11.078125 28.648438 11.078125 28.648438 L 11.339844 28.820312 C 11.339844 28.820312 12.671875 27.96875 13.089844 28.300781 C 13.511719 28.628906 12.308594 29.921875 10.621094 31.160156 C 8.929688 32.390625 7.300781 33.261719 7.050781 32.921875 C 6.800781 32.578125 7.988281 31.460938 7.988281 31.460938 Z M 7.878906 31.140625 "/>
<use xlink:href="#surface56" mask="url(#mask17)"/>
<use xlink:href="#surface59" mask="url(#mask18)"/>
<path style=" stroke:none;fill-rule:nonzero;fill:rgb(58.431373%,65.098039%,89.803922%);fill-opacity:1;" d="M 35.667969 8.648438 C 34.972656 7.925781 33.820312 7.902344 33.09375 8.597656 C 32.371094 9.296875 32.347656 10.445312 33.042969 11.171875 C 33.742188 11.898438 34.894531 11.917969 35.617188 11.222656 C 36.34375 10.527344 36.363281 9.375 35.667969 8.648438 Z M 35.667969 8.648438 "/>
<use xlink:href="#surface62" mask="url(#mask19)"/>
<use xlink:href="#surface65" mask="url(#mask20)"/>
<use xlink:href="#surface68" mask="url(#mask21)"/>
</g>
</svg>
